<svg width="17" height="16" viewBox="0 0 17 16" fill="none" xmlns="http://www.w3.org/2000/svg">
<path d="M16 9C16.5523 9 17 8.55228 17 8C17 7.44772 16.5523 7 16 7L16 9ZM0.292893 7.29289C-0.0976315 7.68342 -0.0976314 8.31658 0.292893 8.70711L6.65686 15.0711C7.04738 15.4616 7.68054 15.4616 8.07107 15.0711C8.46159 14.6805 8.46159 14.0474 8.07107 13.6569L2.41421 8L8.07107 2.34315C8.46159 1.95262 8.46159 1.31946 8.07107 0.928933C7.68054 0.538409 7.04738 0.538409 6.65685 0.928933L0.292893 7.29289ZM16 7C15.9886 7 15.9771 7 15.9656 7C15.9542 7 15.9427 7 15.9312 7C15.9197 7 15.9082 7 15.8967 7C15.8852 7 15.8737 7 15.8621 7C15.8506 7 15.839 7 15.8275 7C15.8159 7 15.8043 7 15.7927 7C15.7811 7 15.7695 7 15.7579 7C15.7463 7 15.7347 7 15.7231 7C15.7114 7 15.6998 7 15.6881 7C15.6765 7 15.6648 7 15.6531 7C15.6414 7 15.6297 7 15.618 7C15.6063 7 15.5946 7 15.5829 7C15.5711 7 15.5594 7 15.5476 7C15.5359 7 15.5241 7 15.5124 7C15.5006 7 15.4888 7 15.477 7C15.4652 7 15.4534 7 15.4416 7C15.4298 7 15.4179 7 15.4061 7C15.3943 7 15.3824 7 15.3705 7C15.3587 7 15.3468 7 15.3349 7C15.323 7 15.3111 7 15.2992 7C15.2873 7 15.2754 7 15.2635 7C15.2516 7 15.2396 7 15.2277 7C15.2157 7 15.2038 7 15.1918 7C15.1798 7 15.1679 7 15.1559 7C15.1439 7 15.1319 7 15.1199 7C15.1079 7 15.0958 7 15.0838 7C15.0718 7 15.0597 7 15.0477 7C15.0356 7 15.0236 7 15.0115 7C14.9994 7 14.9874 7 14.9753 7C14.9632 7 14.9511 7 14.939 7C14.9269 7 14.9147 7 14.9026 7C14.8905 7 14.8783 7 14.8662 7C14.854 7 14.8419 7 14.8297 7C14.8176 7 14.8054 7 14.7932 7C14.781 7 14.7688 7 14.7566 7C14.7444 7 14.7322 7 14.72 7C14.7077 7 14.6955 7 14.6833 7C14.671 7 14.6588 7 14.6465 7C14.6343 7 14.622 7 14.6097 7C14.5974 7 14.5851 7 14.5729 7C14.5606 7 14.5483 7 14.5359 7C14.5236 7 14.5113 7 14.499 7C14.4866 7 14.4743 7 14.462 7C14.4496 7 14.4373 7 14.4249 7C14.4125 7 14.4002 7 14.3878 7C14.3754 7 14.363 7 14.3506 7C14.3382 7 14.3258 7 14.3134 7C14.301 7 14.2885 7 14.2761 7C14.2637 7 14.2512 7 14.2388 7C14.2264 7 14.2139 7 14.2014 7C14.189 7 14.1765 7 14.164 7C14.1515 7 14.1391 7 14.1266 7C14.1141 7 14.1016 7 14.0891 7C14.0766 7 14.064 7 14.0515 7C14.039 7 14.0265 7 14.0139 7C14.0014 7 13.9888 7 13.9763 7C13.9637 7 13.9512 7 13.9386 7C13.926 7 13.9135 7 13.9009 7C13.8883 7 13.8757 7 13.8631 7C13.8505 7 13.8379 7 13.8253 7C13.8127 7 13.8001 7 13.7874 7C13.7748 7 13.7622 7 13.7495 7C13.7369 7 13.7242 7 13.7116 7C13.6989 7 13.6863 7 13.6736 7C13.661 7 13.6483 7 13.6356 7C13.6229 7 13.6102 7 13.5975 7C13.5849 7 13.5722 7 13.5595 7C13.5468 7 13.534 7 13.5213 7C13.5086 7 13.4959 7 13.4832 7C13.4704 7 13.4577 7 13.4449 7C13.4322 7 13.4195 7 13.4067 7C13.394 7 13.3812 7 13.3684 7C13.3557 7 13.3429 7 13.3301 7C13.3173 7 13.3046 7 13.2918 7C13.279 7 13.2662 7 13.2534 7C13.2406 7 13.2278 7 13.215 7C13.2022 7 13.1893 7 13.1765 7C13.1637 7 13.1509 7 13.138 7C13.1252 7 13.1124 7 13.0995 7C13.0867 7 13.0738 7 13.061 7C13.0481 7 13.0353 7 13.0224 7C13.0095 7 12.9967 7 12.9838 7C12.9709 7 12.9581 7 12.9452 7C12.9323 7 12.9194 7 12.9065 7C12.8936 7 12.8807 7 12.8678 7C12.8549 7 12.842 7 12.8291 7C12.8162 7 12.8033 7 12.7903 7C12.7774 7 12.7645 7 12.7516 7C12.7386 7 12.7257 7 12.7128 7C12.6998 7 12.6869 7 12.6739 7C12.661 7 12.648 7 12.6351 7C12.6221 7 12.6092 7 12.5962 7C12.5833 7 12.5703 7 12.5573 7C12.5443 7 12.5314 7 12.5184 7C12.5054 7 12.4924 7 12.4794 7C12.4665 7 12.4535 7 12.4405 7C12.4275 7 12.4145 7 12.4015 7C12.3885 7 12.3755 7 12.3625 7C12.3495 7 12.3365 7 12.3234 7C12.3104 7 12.2974 7 12.2844 7C12.2714 7 12.2583 7 12.2453 7C12.2323 7 12.2193 7 12.2062 7C12.1932 7 12.1802 7 12.1671 7C12.1541 7 12.141 7 12.128 7C12.1149 7 12.1019 7 12.0888 7C12.0758 7 12.0627 7 12.0497 7C12.0366 7 12.0236 7 12.0105 7C11.9974 7 11.9844 7 11.9713 7C11.9582 7 11.9452 7 11.9321 7C11.919 7 11.9059 7 11.8929 7C11.8798 7 11.8667 7 11.8536 7C11.8405 7 11.8275 7 11.8144 7C11.8013 7 11.7882 7 11.7751 7C11.762 7 11.7489 7 11.7358 7C11.7227 7 11.7096 7 11.6965 7C11.6834 7 11.6703 7 11.6572 7C11.6441 7 11.631 7 11.6179 7C11.6048 7 11.5917 7 11.5786 7C11.5655 7 11.5524 7 11.5393 7C11.5262 7 11.5131 7 11.4999 7C11.4868 7 11.4737 7 11.4606 7C11.4475 7 11.4344 7 11.4212 7C11.4081 7 11.395 7 11.3819 7C11.3688 7 11.3556 7 11.3425 7C11.3294 7 11.3163 7 11.3031 7C11.29 7 11.2769 7 11.2637 7C11.2506 7 11.2375 7 11.2244 7C11.2112 7 11.1981 7 11.185 7C11.1718 7 11.1587 7 11.1456 7C11.1324 7 11.1193 7 11.1062 7C11.093 7 11.0799 7 11.0668 7C11.0536 7 11.0405 7 11.0274 7C11.0142 7 11.0011 7 10.988 7C10.9748 7 10.9617 7 10.9485 7C10.9354 7 10.9223 7 10.9091 7C10.896 7 10.8829 7 10.8697 7C10.8566 7 10.8435 7 10.8303 7C10.8172 7 10.804 7 10.7909 7C10.7778 7 10.7646 7 10.7515 7C10.7384 7 10.7252 7 10.7121 7C10.699 7 10.6858 7 10.6727 7C10.6596 7 10.6464 7 10.6333 7C10.6202 7 10.607 7 10.5939 7C10.5808 7 10.5676 7 10.5545 7C10.5414 7 10.5282 7 10.5151 7C10.502 7 10.4889 7 10.4757 7C10.4626 7 10.4495 7 10.4364 7C10.4232 7 10.4101 7 10.397 7C10.3839 7 10.3708 7 10.3576 7C10.3445 7 10.3314 7 10.3183 7C10.3052 7 10.2921 7 10.2789 7C10.2658 7 10.2527 7 10.2396 7C10.2265 7 10.2134 7 10.2003 7C10.1872 7 10.1741 7 10.161 7C10.1479 7 10.1347 7 10.1216 7C10.1085 7 10.0954 7 10.0824 7C10.0693 7 10.0562 7 10.0431 7C10.03 7 10.0169 7 10.0038 7C9.99071 7 9.97762 7 9.96453 7C9.95145 7 9.93837 7 9.92529 7C9.91221 7 9.89913 7 9.88605 7C9.87298 7 9.85991 7 9.84683 7C9.83376 7 9.8207 7 9.80763 7C9.79456 7 9.7815 7 9.76844 7C9.75538 7 9.74232 7 9.72927 7C9.71621 7 9.70316 7 9.69011 7C9.67706 7 9.66402 7 9.65097 7C9.63793 7 9.62489 7 9.61185 7C9.59881 7 9.58578 7 9.57275 7C9.55972 7 9.54669 7 9.53366 7C9.52064 7 9.50761 7 9.4946 7C9.48158 7 9.46856 7 9.45555 7C9.44254 7 9.42953 7 9.41652 7C9.40352 7 9.39052 7 9.37752 7C9.36452 7 9.35153 7 9.33854 7C9.32555 7 9.31256 7 9.29958 7C9.28659 7 9.27361 7 9.26064 7C9.24766 7 9.23469 7 9.22172 7C9.20875 7 9.19579 7 9.18283 7C9.16987 7 9.15691 7 9.14396 7C9.13101 7 9.11806 7 9.10512 7C9.09218 7 9.07924 7 9.0663 7C9.05337 7 9.04044 7 9.02751 7C9.01459 7 9.00166 7 8.98875 7C8.97583 7 8.96292 7 8.95001 7C8.9371 7 8.9242 7 8.9113 7C8.8984 7 8.88551 7 8.87262 7C8.85973 7 8.84684 7 8.83396 7C8.82108 7 8.80821 7 8.79534 7C8.78247 7 8.76961 7 8.75675 7C8.74389 7 8.73103 7 8.71818 7C8.70533 7 8.69249 7 8.67965 7C8.66681 7 8.65398 7 8.64115 7C8.62832 7 8.6155 7 8.60268 7C8.58986 7 8.57705 7 8.56424 7C8.55144 7 8.53863 7 8.52584 7C8.51304 7 8.50025 7 8.48747 7C8.47468 7 8.46191 7 8.44913 7C8.43636 7 8.42359 7 8.41083 7C8.39807 7 8.38532 7 8.37257 7C8.35982 7 8.34707 7 8.33434 7C8.3216 7 8.30887 7 8.29614 7C8.28342 7 8.2707 7 8.25799 7C8.24528 7 8.23257 7 8.21987 7C8.20717 7 8.19448 7 8.18179 7C8.1691 7 8.15642 7 8.14375 7C8.13107 7 8.11841 7 8.10575 7C8.09308 7 8.08043 7 8.06778 7C8.05514 7 8.0425 7 8.02986 7C8.01723 7 8.0046 7 7.99198 7C7.97936 7 7.96675 7 7.95414 7C7.94153 7 7.92893 7 7.91634 7C7.90375 7 7.89117 7 7.87859 7C7.86601 7 7.85344 7 7.84088 7C7.82831 7 7.81576 7 7.80321 7C7.79066 7 7.77812 7 7.76558 7C7.75305 7 7.74052 7 7.72801 7C7.71549 7 7.70298 7 7.69047 7C7.67797 7 7.66547 7 7.65298 7C7.6405 7 7.62801 7 7.61554 7C7.60307 7 7.5906 7 7.57815 7C7.56569 7 7.55324 7 7.5408 7C7.52836 7 7.51593 7 7.5035 7C7.49108 7 7.47866 7 7.46625 7C7.45384 7 7.44144 7 7.42905 7C7.41666 7 7.40428 7 7.3919 7C7.37953 7 7.36716 7 7.3548 7C7.34244 7 7.33009 7 7.31775 7C7.30541 7 7.29308 7 7.28075 7C7.26843 7 7.25611 7 7.24381 7C7.2315 7 7.2192 7 7.20691 7C7.19463 7 7.18235 7 7.17007 7C7.1578 7 7.14554 7 7.13329 7C7.12104 7 7.10879 7 7.09656 7C7.08432 7 7.0721 7 7.05988 7C7.04766 7 7.03545 7 7.02326 7C7.01106 7 6.99887 7 6.98669 7C6.97451 7 6.96234 7 6.95018 7C6.93802 7 6.92587 7 6.91373 7C6.90159 7 6.88946 7 6.87733 7C6.86521 7 6.8531 7 6.841 7C6.82889 7 6.8168 7 6.80472 7C6.79264 7 6.78056 7 6.7685 7C6.75644 7 6.74438 7 6.73234 7C6.7203 7 6.70827 7 6.69624 7C6.68422 7 6.67221 7 6.6602 7C6.6482 7 6.63621 7 6.62423 7C6.61225 7 6.60027 7 6.58831 7C6.57635 7 6.5644 7 6.55246 7C6.54052 7 6.52859 7 6.51667 7C6.50475 7 6.49285 7 6.48095 7C6.46905 7 6.45716 7 6.44529 7C6.43341 7 6.42155 7 6.40969 7C6.39784 7 6.386 7 6.37416 7C6.36233 7 6.35051 7 6.3387 7C6.32689 7 6.31509 7 6.3033 7C6.29151 7 6.27974 7 6.26797 7C6.2562 7 6.24445 7 6.23271 7C6.22096 7 6.20923 7 6.19751 7C6.18579 7 6.17408 7 6.16238 7C6.15069 7 6.139 7 6.12733 7C6.11565 7 6.10399 7 6.09234 7C6.08069 7 6.06905 7 6.05742 7C6.0458 7 6.03418 7 6.02258 7C6.01097 7 5.99938 7 5.9878 7C5.97622 7 5.96466 7 5.9531 7C5.94155 7 5.93 7 5.91847 7C5.90694 7 5.89542 7 5.88391 7C5.87241 7 5.86091 7 5.84943 7C5.83795 7 5.82648 7 5.81502 7C5.80356 7 5.79212 7 5.78069 7C5.76926 7 5.75784 7 5.74643 7C5.73502 7 5.72363 7 5.71225 7C5.70087 7 5.6895 7 5.67814 7C5.66679 7 5.65544 7 5.64411 7C5.63278 7 5.62146 7 5.61016 7C5.59886 7 5.58756 7 5.57629 7C5.56501 7 5.55374 7 5.54249 7C5.53124 7 5.52 7 5.50878 7C5.49755 7 5.48634 7 5.47514 7C5.46394 7 5.45276 7 5.44159 7C5.43041 7 5.41926 7 5.40811 7C5.39697 7 5.38584 7 5.37472 7C5.3636 7 5.3525 7 5.34141 7C5.33032 7 5.31924 7 5.30818 7C5.29712 7 5.28607 7 5.27503 7C5.264 7 5.25298 7 5.24197 7C5.23097 7 5.21997 7 5.209 7C5.19802 7 5.18705 7 5.1761 7C5.16515 7 5.15422 7 5.1433 7C5.13237 7 5.12147 7 5.11057 7C5.09968 7 5.0888 7 5.07794 7C5.06708 7 5.05623 7 5.04539 7C5.03456 7 5.02374 7 5.01293 7C5.00213 7 4.99134 7 4.98056 7C4.96979 7 4.95902 7 4.94828 7C4.93753 7 4.9268 7 4.91608 7C4.90537 7 4.89467 7 4.88398 7C4.87329 7 4.86262 7 4.85197 7C4.84131 7 4.83067 7 4.82004 7C4.80942 7 4.79881 7 4.78821 7C4.77762 7 4.76704 7 4.75647 7C4.74591 7 4.73536 7 4.72483 7C4.71429 7 4.70378 7 4.69327 7C4.68277 7 4.67228 7 4.66181 7C4.65134 7 4.64089 7 4.63045 7C4.62001 7 4.60959 7 4.59918 7C4.58877 7 4.57838 7 4.568 7C4.55763 7 4.54727 7 4.53692 7C4.52658 7 4.51625 7 4.50594 7C4.49563 7 4.48533 7 4.47505 7C4.46477 7 4.45451 7 4.44427 7C4.43402 7 4.42379 7 4.41358 7C4.40336 7 4.39316 7 4.38298 7C4.3728 7 4.36264 7 4.35249 7C4.34235 7 4.33221 7 4.3221 7C4.31199 7 4.30189 7 4.29181 7C4.28173 7 4.27166 7 4.26162 7C4.25157 7 4.24154 7 4.23153 7C4.22151 7 4.21152 7 4.20154 7C4.19156 7 4.1816 7 4.17165 7C4.16171 7 4.15178 7 4.14187 7C4.13196 7 4.12207 7 4.11219 7C4.10232 7 4.09246 7 4.08262 7C4.07278 7 4.06296 7 4.05315 7C4.04335 7 4.03356 7 4.02379 7C4.01402 7 4.00426 7 3.99453 7C3.9848 7 3.97508 7 3.96538 7C3.95568 7 3.946 7 3.93633 7C3.92667 7 3.91703 7 3.9074 7C3.89777 7 3.88816 7 3.87857 7C3.86898 7 3.8594 7 3.84985 7C3.84029 7 3.83076 7 3.82124 7C3.81172 7 3.80222 7 3.79274 7C3.78326 7 3.77379 7 3.76435 7C3.7549 7 3.74548 7 3.73607 7C3.72666 7 3.71727 7 3.7079 7C3.69853 7 3.68918 7 3.67984 7C3.67051 7 3.6612 7 3.6519 7C3.64261 7 3.63333 7 3.62407 7C3.61481 7 3.60557 7 3.59635 7C3.58714 7 3.57793 7 3.56875 7C3.55957 7 3.55041 7 3.54127 7C3.53212 7 3.523 7 3.51389 7C3.50479 7 3.4957 7 3.48664 7C3.47757 7 3.46852 7 3.4595 7C3.45047 7 3.44146 7 3.43247 7C3.42349 7 3.41452 7 3.40557 7C3.39662 7 3.38769 7 3.37878 7C3.36987 7 3.36098 7 3.35211 7C3.34324 7 3.3344 7 3.32557 7C3.31674 7 3.30793 7 3.29914 7C3.29035 7 3.28158 7 3.27283 7C3.26408 7 3.25535 7 3.24664 7C3.23793 7 3.22924 7 3.22057 7C3.2119 7 3.20326 7 3.19463 7C3.186 7 3.17739 7 3.16881 7C3.16022 7 3.15165 7 3.14311 7C3.13456 7 3.12604 7 3.11753 7C3.10903 7 3.10055 7 3.09208 7C3.08362 7 3.07518 7 3.06676 7C3.05834 7 3.04994 7 3.04156 7C3.03318 7 3.02482 7 3.01648 7C3.00815 7 2.99983 7 2.99153 7C2.98324 7 2.97497 7 2.96671 7C2.95846 7 2.95023 7 2.94202 7C2.93381 7 2.92562 7 2.91745 7C2.90929 7 2.90114 7 2.89302 7C2.88489 7 2.87679 7 2.86871 7C2.86063 7 2.85257 7 2.84453 7C2.8365 7 2.82848 7 2.82049 7C2.81249 7 2.80452 7 2.79657 7C2.78862 7 2.78069 7 2.77278 7C2.76488 7 2.75699 7 2.74913 7C2.74127 7 2.73343 7 2.72561 7C2.71779 7 2.71 7 2.70222 7C2.69445 7 2.6867 7 2.67897 7C2.67124 7 2.66354 7 2.65585 7C2.64817 7 2.64051 7 2.63287 7C2.62523 7 2.61761 7 2.61002 7C2.60242 7 2.59485 7 2.58731 7C2.57976 7 2.57223 7 2.56473 7C2.55723 7 2.54975 7 2.54229 7C2.53483 7 2.5274 7 2.51999 7C2.51258 7 2.50519 7 2.49782 7C2.49046 7 2.48312 7 2.4758 7C2.46848 7 2.46119 7 2.45391 7C2.44664 7 2.43939 7 2.43217 7C2.42494 7 2.41774 7 2.41056 7C2.40338 7 2.39623 7 2.3891 7C2.38197 7 2.37486 7 2.36777 7C2.36069 7 2.35363 7 2.34659 7C2.33956 7 2.33254 7 2.32555 7C2.31856 7 2.3116 7 2.30466 7C2.29772 7 2.2908 7 2.28391 7C2.27701 7 2.27014 7 2.2633 7C2.25645 7 2.24963 7 2.24284 7C2.23604 7 2.22927 7 2.22252 7C2.21577 7 2.20905 7 2.20235 7C2.19565 7 2.18897 7 2.18232 7C2.17567 7 2.16905 7 2.16244 7C2.15584 7 2.14927 7 2.14271 7C2.13616 7 2.12963 7 2.12313 7C2.11663 7 2.11015 7 2.1037 7C2.09725 7 2.09082 7 2.08441 7C2.07801 7 2.07163 7 2.06528 7C2.05893 7 2.0526 7 2.0463 7C2.03999 7 2.03372 7 2.02746 7C2.02121 7 2.01498 7 2.00878 7C2.00258 7 1.9964 7 1.99025 7C1.9841 7 1.97797 7 1.97187 7C1.96577 7 1.9597 7 1.95365 7C1.9476 7 1.94158 7 1.93558 7C1.92958 7 1.92361 7 1.91766 7C1.91172 7 1.9058 7 1.8999 7C1.89401 7 1.88814 7 1.8823 7C1.87645 7 1.87064 7 1.86485 7C1.85906 7 1.85329 7 1.84755 7C1.84182 7 1.8361 7 1.83042 7C1.82473 7 1.81907 7 1.81344 7C1.8078 7 1.8022 7 1.79662 7C1.79104 7 1.78548 7 1.77996 7C1.77443 7 1.76893 7 1.76345 7C1.75798 7 1.75253 7 1.74711 7C1.74169 7 1.7363 7 1.73093 7C1.72556 7 1.72022 7 1.71491 7C1.70959 7 1.70431 7 1.69905 7C1.69379 7 1.68855 7 1.68335 7C1.67814 7 1.67296 7 1.66781 7C1.66266 7 1.65754 7 1.65244 7C1.64734 7 1.64227 7 1.63723 7C1.63219 7 1.62717 7 1.62219 7C1.6172 7 1.61224 7 1.60731 7C1.60237 7 1.59747 7 1.59259 7C1.58772 7 1.58287 7 1.57804 7C1.57322 7 1.56843 7 1.56366 7C1.5589 7 1.55416 7 1.54945 7C1.54474 7 1.54006 7 1.5354 7C1.53075 7 1.52612 7 1.52152 7C1.51692 7 1.51235 7 1.50781 7C1.50327 7 1.49876 7 1.49427 7C1.48978 7 1.48533 7 1.4809 7C1.47647 7 1.47207 7 1.4677 7C1.46333 7 1.45898 7 1.45467 7C1.45035 7 1.44607 7 1.44181 7C1.43755 7 1.43332 7 1.42912 7C1.42492 7 1.42075 7 1.41661 7C1.41247 7 1.40835 7 1.40427 7C1.40018 7 1.39613 7 1.3921 7C1.38807 7 1.38408 7 1.38011 7C1.37614 7 1.3722 7 1.36829 7C1.36438 7 1.3605 7 1.35665 7C1.35279 7 1.34897 7 1.34518 7C1.34139 7 1.33762 7 1.33389 7C1.33016 7 1.32645 7 1.32278 7C1.3191 7 1.31546 7 1.31184 7C1.30822 7 1.30464 7 1.30108 7C1.29753 7 1.294 7 1.2905 7C1.28701 7 1.28354 7 1.2801 7C1.27667 7 1.27326 7 1.26988 7C1.26651 7 1.26316 7 1.25984 7C1.25653 7 1.25324 7 1.24999 7C1.24673 7 1.2435 7 1.24031 7C1.23711 7 1.23395 7 1.23081 7C1.22768 7 1.22457 7 1.2215 7C1.21843 7 1.21538 7 1.21237 7C1.20936 7 1.20638 7 1.20343 7C1.20047 7 1.19755 7 1.19466 7C1.19177 7 1.18892 7 1.18609 7C1.18326 7 1.18046 7 1.1777 7C1.17493 7 1.1722 7 1.16949 7C1.16679 7 1.16411 7 1.16147 7C1.15883 7 1.15622 7 1.15364 7C1.15106 7 1.14851 7 1.146 7C1.14348 7 1.14099 7 1.13854 7C1.13609 7 1.13366 7 1.13127 7C1.12888 7 1.12652 7 1.12419 7C1.12187 7 1.11957 7 1.11731 7C1.11504 7 1.11281 7 1.11061 7C1.10841 7 1.10624 7 1.1041 7C1.10196 7 1.09986 7 1.09778 7C1.09571 7 1.09367 7 1.09166 7C1.08965 7 1.08768 7 1.08573 7C1.08378 7 1.08187 7 1.07999 7C1.07811 7 1.07626 7 1.07445 7C1.07263 7 1.07085 7 1.0691 7C1.06735 7 1.06563 7 1.06394 7C1.06226 7 1.0606 7 1.05898 7C1.05736 7 1.05577 7 1.05422 7C1.05266 7 1.05114 7 1.04965 7C1.04816 7 1.04671 7 1.04528 7C1.04386 7 1.04247 7 1.04111 7C1.03975 7 1.03843 7 1.03713 7C1.03584 7 1.03458 7 1.03336 7C1.03213 7 1.03094 7 1.02978 7C1.02862 7 1.0275 7 1.0264 7C1.02531 7 1.02425 7 1.02323 7C1.0222 7 1.02121 7 1.02025 7C1.01929 7 1.01837 7 1.01748 7C1.01659 7 1.01573 7 1.01491 7C1.01408 7 1.01329 7 1.01254 7C1.01178 7 1.01106 7 1.01037 7C1.00968 7 1.00903 7 1.00841 7C1.00779 7 1.0072 7 1.00665 7C1.0061 7 1.00558 7 1.00509 7C1.00461 7 1.00416 7 1.00375 7C1.00333 7 1.00295 7 1.0026 7C1.00226 7 1.00195 7 1.00167 7C1.00139 7 1.00115 7 1.00094 7C1.00073 7 1.00056 7 1.00042 7C1.00028 7 1.00017 7 1.0001 7C1.00004 7 1 7 1 8C1 9 1.00004 9 1.0001 9C1.00017 9 1.00028 9 1.00042 9C1.00056 9 1.00073 9 1.00094 9C1.00115 9 1.00139 9 1.00167 9C1.00195 9 1.00226 9 1.0026 9C1.00295 9 1.00333 9 1.00375 9C1.00416 9 1.00461 9 1.00509 9C1.00558 9 1.0061 9 1.00665 9C1.0072 9 1.00779 9 1.00841 9C1.00903 9 1.00968 9 1.01037 9C1.01106 9 1.01178 9 1.01254 9C1.01329 9 1.01408 9 1.01491 9C1.01573 9 1.01659 9 1.01748 9C1.01837 9 1.01929 9 1.02025 9C1.02121 9 1.0222 9 1.02323 9C1.02425 9 1.02531 9 1.0264 9C1.0275 9 1.02862 9 1.02978 9C1.03094 9 1.03213 9 1.03336 9C1.03458 9 1.03584 9 1.03713 9C1.03843 9 1.03975 9 1.04111 9C1.04247 9 1.04386 9 1.04528 9C1.04671 9 1.04816 9 1.04965 9C1.05114 9 1.05266 9 1.05422 9C1.05577 9 1.05736 9 1.05898 9C1.0606 9 1.06226 9 1.06394 9C1.06563 9 1.06735 9 1.0691 9C1.07085 9 1.07263 9 1.07445 9C1.07626 9 1.07811 9 1.07999 9C1.08187 9 1.08379 9 1.08573 9C1.08768 9 1.08965 9 1.09166 9C1.09367 9 1.09571 9 1.09779 9C1.09986 9 1.10196 9 1.1041 9C1.10624 9 1.10841 9 1.11061 9C1.11281 9 1.11504 9 1.11731 9C1.11957 9 1.12187 9 1.12419 9C1.12652 9 1.12888 9 1.13127 9C1.13366 9 1.13609 9 1.13854 9C1.14099 9 1.14348 9 1.146 9C1.14851 9 1.15106 9 1.15364 9C1.15622 9 1.15883 9 1.16147 9C1.16411 9 1.16679 9 1.16949 9C1.1722 9 1.17493 9 1.1777 9C1.18046 9 1.18326 9 1.18609 9C1.18892 9 1.19177 9 1.19466 9C1.19755 9 1.20047 9 1.20343 9C1.20638 9 1.20936 9 1.21237 9C1.21538 9 1.21843 9 1.2215 9C1.22457 9 1.22768 9 1.23081 9C1.23395 9 1.23711 9 1.24031 9C1.2435 9 1.24673 9 1.24999 9C1.25324 9 1.25653 9 1.25984 9C1.26316 9 1.26651 9 1.26988 9C1.27326 9 1.27667 9 1.2801 9C1.28354 9 1.28701 9 1.2905 9C1.294 9 1.29753 9 1.30108 9C1.30464 9 1.30822 9 1.31184 9C1.31546 9 1.3191 9 1.32278 9C1.32645 9 1.33016 9 1.33389 9C1.33762 9 1.34139 9 1.34518 9C1.34897 9 1.35279 9 1.35665 9C1.3605 9 1.36438 9 1.36829 9C1.3722 9 1.37614 9 1.38011 9C1.38408 9 1.38807 9 1.3921 9C1.39613 9 1.40018 9 1.40427 9C1.40835 9 1.41247 9 1.41661 9C1.42075 9 1.42492 9 1.42912 9C1.43332 9 1.43755 9 1.44181 9C1.44607 9 1.45035 9 1.45467 9C1.45898 9 1.46333 9 1.4677 9C1.47207 9 1.47647 9 1.4809 9C1.48533 9 1.48978 9 1.49427 9C1.49876 9 1.50327 9 1.50781 9C1.51235 9 1.51692 9 1.52152 9C1.52612 9 1.53075 9 1.5354 9C1.54006 9 1.54474 9 1.54945 9C1.55416 9 1.5589 9 1.56366 9C1.56843 9 1.57322 9 1.57804 9C1.58287 9 1.58772 9 1.59259 9C1.59747 9 1.60238 9 1.60731 9C1.61224 9 1.6172 9 1.62219 9C1.62717 9 1.63219 9 1.63723 9C1.64227 9 1.64734 9 1.65244 9C1.65754 9 1.66266 9 1.66781 9C1.67296 9 1.67814 9 1.68335 9C1.68855 9 1.69379 9 1.69905 9C1.70431 9 1.70959 9 1.71491 9C1.72022 9 1.72556 9 1.73093 9C1.7363 9 1.74169 9 1.74711 9C1.75253 9 1.75798 9 1.76345 9C1.76893 9 1.77443 9 1.77996 9C1.78548 9 1.79104 9 1.79662 9C1.8022 9 1.80781 9 1.81344 9C1.81907 9 1.82473 9 1.83042 9C1.8361 9 1.84182 9 1.84755 9C1.85329 9 1.85906 9 1.86485 9C1.87064 9 1.87645 9 1.8823 9C1.88814 9 1.89401 9 1.8999 9C1.9058 9 1.91172 9 1.91766 9C1.92361 9 1.92958 9 1.93558 9C1.94158 9 1.9476 9 1.95365 9C1.9597 9 1.96577 9 1.97187 9C1.97797 9 1.9841 9 1.99025 9C1.9964 9 2.00258 9 2.00878 9C2.01498 9 2.02121 9 2.02746 9C2.03372 9 2.03999 9 2.0463 9C2.0526 9 2.05893 9 2.06528 9C2.07163 9 2.07801 9 2.08441 9C2.09082 9 2.09725 9 2.1037 9C2.11015 9 2.11663 9 2.12313 9C2.12963 9 2.13616 9 2.14271 9C2.14927 9 2.15584 9 2.16245 9C2.16905 9 2.17567 9 2.18232 9C2.18897 9 2.19565 9 2.20235 9C2.20905 9 2.21577 9 2.22252 9C2.22927 9 2.23604 9 2.24284 9C2.24963 9 2.25645 9 2.2633 9C2.27014 9 2.27701 9 2.28391 9C2.2908 9 2.29772 9 2.30466 9C2.3116 9 2.31856 9 2.32555 9C2.33254 9 2.33956 9 2.34659 9C2.35363 9 2.36069 9 2.36777 9C2.37486 9 2.38197 9 2.3891 9C2.39623 9 2.40338 9 2.41056 9C2.41774 9 2.42494 9 2.43217 9C2.43939 9 2.44664 9 2.45391 9C2.46119 9 2.46848 9 2.4758 9C2.48312 9 2.49046 9 2.49782 9C2.50519 9 2.51258 9 2.51999 9C2.5274 9 2.53483 9 2.54229 9C2.54975 9 2.55723 9 2.56473 9C2.57223 9 2.57976 9 2.58731 9C2.59485 9 2.60242 9 2.61002 9C2.61761 9 2.62523 9 2.63287 9C2.64051 9 2.64817 9 2.65585 9C2.66354 9 2.67124 9 2.67897 9C2.6867 9 2.69445 9 2.70222 9C2.71 9 2.71779 9 2.72561 9C2.73343 9 2.74127 9 2.74913 9C2.75699 9 2.76488 9 2.77278 9C2.78069 9 2.78862 9 2.79657 9C2.80452 9 2.81249 9 2.82049 9C2.82848 9 2.8365 9 2.84453 9C2.85257 9 2.86063 9 2.86871 9C2.87679 9 2.88489 9 2.89302 9C2.90114 9 2.90929 9 2.91745 9C2.92562 9 2.93381 9 2.94202 9C2.95023 9 2.95846 9 2.96671 9C2.97497 9 2.98324 9 2.99153 9C2.99983 9 3.00815 9 3.01648 9C3.02482 9 3.03318 9 3.04156 9C3.04994 9 3.05834 9 3.06676 9C3.07518 9 3.08362 9 3.09208 9C3.10055 9 3.10903 9 3.11753 9C3.12604 9 3.13456 9 3.14311 9C3.15165 9 3.16022 9 3.16881 9C3.17739 9 3.186 9 3.19463 9C3.20326 9 3.2119 9 3.22057 9C3.22924 9 3.23793 9 3.24664 9C3.25535 9 3.26408 9 3.27283 9C3.28158 9 3.29035 9 3.29914 9C3.30793 9 3.31674 9 3.32557 9C3.3344 9 3.34324 9 3.35211 9C3.36098 9 3.36987 9 3.37878 9C3.38769 9 3.39662 9 3.40557 9C3.41452 9 3.42349 9 3.43247 9C3.44146 9 3.45047 9 3.4595 9C3.46852 9 3.47757 9 3.48664 9C3.4957 9 3.50479 9 3.51389 9C3.523 9 3.53212 9 3.54127 9C3.55041 9 3.55957 9 3.56875 9C3.57793 9 3.58714 9 3.59635 9C3.60557 9 3.61481 9 3.62407 9C3.63333 9 3.64261 9 3.6519 9C3.6612 9 3.67051 9 3.67984 9C3.68918 9 3.69853 9 3.7079 9C3.71727 9 3.72666 9 3.73607 9C3.74548 9 3.7549 9 3.76435 9C3.77379 9 3.78326 9 3.79274 9C3.80222 9 3.81172 9 3.82124 9C3.83076 9 3.84029 9 3.84985 9C3.8594 9 3.86898 9 3.87857 9C3.88816 9 3.89777 9 3.9074 9C3.91703 9 3.92667 9 3.93633 9C3.946 9 3.95568 9 3.96538 9C3.97508 9 3.9848 9 3.99453 9C4.00426 9 4.01402 9 4.02379 9C4.03356 9 4.04335 9 4.05315 9C4.06296 9 4.07278 9 4.08262 9C4.09246 9 4.10232 9 4.1122 9C4.12207 9 4.13196 9 4.14187 9C4.15178 9 4.16171 9 4.17165 9C4.1816 9 4.19156 9 4.20154 9C4.21152 9 4.22151 9 4.23153 9C4.24154 9 4.25157 9 4.26162 9C4.27166 9 4.28173 9 4.29181 9C4.30189 9 4.31199 9 4.3221 9C4.33221 9 4.34235 9 4.35249 9C4.36264 9 4.3728 9 4.38298 9C4.39316 9 4.40336 9 4.41358 9C4.42379 9 4.43402 9 4.44427 9C4.45451 9 4.46478 9 4.47505 9C4.48533 9 4.49563 9 4.50594 9C4.51625 9 4.52658 9 4.53692 9C4.54727 9 4.55763 9 4.568 9C4.57838 9 4.58877 9 4.59918 9C4.60959 9 4.62001 9 4.63045 9C4.64089 9 4.65134 9 4.66181 9C4.67229 9 4.68277 9 4.69327 9C4.70378 9 4.71429 9 4.72483 9C4.73536 9 4.74591 9 4.75647 9C4.76704 9 4.77762 9 4.78821 9C4.79881 9 4.80942 9 4.82004 9C4.83067 9 4.84131 9 4.85197 9C4.86262 9 4.87329 9 4.88398 9C4.89467 9 4.90537 9 4.91608 9C4.9268 9 4.93753 9 4.94828 9C4.95902 9 4.96979 9 4.98056 9C4.99134 9 5.00213 9 5.01293 9C5.02374 9 5.03456 9 5.04539 9C5.05623 9 5.06708 9 5.07794 9C5.0888 9 5.09968 9 5.11057 9C5.12147 9 5.13237 9 5.1433 9C5.15422 9 5.16515 9 5.1761 9C5.18705 9 5.19802 9 5.209 9C5.21997 9 5.23097 9 5.24197 9C5.25298 9 5.264 9 5.27503 9C5.28607 9 5.29712 9 5.30818 9C5.31924 9 5.33032 9 5.34141 9C5.3525 9 5.3636 9 5.37472 9C5.38584 9 5.39697 9 5.40811 9C5.41926 9 5.43041 9 5.44159 9C5.45276 9 5.46394 9 5.47514 9C5.48634 9 5.49755 9 5.50878 9C5.52 9 5.53124 9 5.54249 9C5.55374 9 5.56501 9 5.57629 9C5.58756 9 5.59886 9 5.61016 9C5.62146 9 5.63278 9 5.64411 9C5.65544 9 5.66679 9 5.67814 9C5.6895 9 5.70087 9 5.71225 9C5.72363 9 5.73502 9 5.74643 9C5.75784 9 5.76926 9 5.78069 9C5.79212 9 5.80357 9 5.81502 9C5.82648 9 5.83795 9 5.84943 9C5.86091 9 5.87241 9 5.88391 9C5.89542 9 5.90694 9 5.91847 9C5.93 9 5.94155 9 5.9531 9C5.96466 9 5.97622 9 5.9878 9C5.99938 9 6.01097 9 6.02258 9C6.03418 9 6.0458 9 6.05742 9C6.06905 9 6.08069 9 6.09234 9C6.10399 9 6.11565 9 6.12733 9C6.139 9 6.15069 9 6.16239 9C6.17408 9 6.18579 9 6.19751 9C6.20923 9 6.22096 9 6.23271 9C6.24445 9 6.2562 9 6.26797 9C6.27974 9 6.29151 9 6.3033 9C6.31509 9 6.32689 9 6.3387 9C6.35051 9 6.36233 9 6.37416 9C6.386 9 6.39784 9 6.40969 9C6.42155 9 6.43341 9 6.44529 9C6.45716 9 6.46905 9 6.48095 9C6.49285 9 6.50476 9 6.51667 9C6.52859 9 6.54052 9 6.55246 9C6.5644 9 6.57635 9 6.58831 9C6.60028 9 6.61225 9 6.62423 9C6.63621 9 6.6482 9 6.6602 9C6.67221 9 6.68422 9 6.69624 9C6.70827 9 6.7203 9 6.73234 9C6.74438 9 6.75644 9 6.7685 9C6.78056 9 6.79264 9 6.80472 9C6.8168 9 6.82889 9 6.841 9C6.8531 9 6.86521 9 6.87733 9C6.88946 9 6.90159 9 6.91373 9C6.92587 9 6.93802 9 6.95018 9C6.96234 9 6.97451 9 6.98669 9C6.99887 9 7.01106 9 7.02326 9C7.03545 9 7.04766 9 7.05988 9C7.0721 9 7.08432 9 7.09656 9C7.10879 9 7.12104 9 7.13329 9C7.14554 9 7.1578 9 7.17007 9C7.18235 9 7.19463 9 7.20691 9C7.2192 9 7.2315 9 7.24381 9C7.25612 9 7.26843 9 7.28075 9C7.29308 9 7.30541 9 7.31775 9C7.33009 9 7.34244 9 7.3548 9C7.36716 9 7.37953 9 7.3919 9C7.40428 9 7.41666 9 7.42905 9C7.44144 9 7.45385 9 7.46625 9C7.47866 9 7.49108 9 7.5035 9C7.51593 9 7.52836 9 7.5408 9C7.55324 9 7.56569 9 7.57815 9C7.5906 9 7.60307 9 7.61554 9C7.62801 9 7.6405 9 7.65298 9C7.66547 9 7.67797 9 7.69047 9C7.70298 9 7.71549 9 7.72801 9C7.74052 9 7.75305 9 7.76558 9C7.77812 9 7.79066 9 7.80321 9C7.81576 9 7.82831 9 7.84088 9C7.85344 9 7.86601 9 7.87859 9C7.89117 9 7.90375 9 7.91634 9C7.92894 9 7.94153 9 7.95414 9C7.96675 9 7.97936 9 7.99198 9C8.0046 9 8.01723 9 8.02986 9C8.0425 9 8.05514 9 8.06778 9C8.08043 9 8.09308 9 8.10575 9C8.11841 9 8.13107 9 8.14375 9C8.15642 9 8.1691 9 8.18179 9C8.19448 9 8.20717 9 8.21987 9C8.23257 9 8.24528 9 8.25799 9C8.2707 9 8.28342 9 8.29614 9C8.30887 9 8.3216 9 8.33434 9C8.34707 9 8.35982 9 8.37257 9C8.38532 9 8.39807 9 8.41083 9C8.42359 9 8.43636 9 8.44913 9C8.46191 9 8.47468 9 8.48747 9C8.50025 9 8.51304 9 8.52584 9C8.53863 9 8.55144 9 8.56424 9C8.57705 9 8.58986 9 8.60268 9C8.6155 9 8.62832 9 8.64115 9C8.65398 9 8.66681 9 8.67965 9C8.69249 9 8.70533 9 8.71818 9C8.73103 9 8.74389 9 8.75675 9C8.76961 9 8.78247 9 8.79534 9C8.80821 9 8.82108 9 8.83396 9C8.84684 9 8.85973 9 8.87262 9C8.88551 9 8.8984 9 8.9113 9C8.9242 9 8.9371 9 8.95001 9C8.96292 9 8.97583 9 8.98875 9C9.00166 9 9.01459 9 9.02751 9C9.04044 9 9.05337 9 9.0663 9C9.07924 9 9.09218 9 9.10512 9C9.11806 9 9.13101 9 9.14396 9C9.15691 9 9.16987 9 9.18283 9C9.19579 9 9.20875 9 9.22172 9C9.23469 9 9.24766 9 9.26064 9C9.27361 9 9.28659 9 9.29958 9C9.31256 9 9.32555 9 9.33854 9C9.35153 9 9.36452 9 9.37752 9C9.39052 9 9.40352 9 9.41652 9C9.42953 9 9.44254 9 9.45555 9C9.46856 9 9.48158 9 9.4946 9C9.50761 9 9.52064 9 9.53366 9C9.54669 9 9.55972 9 9.57275 9C9.58578 9 9.59881 9 9.61185 9C9.62489 9 9.63793 9 9.65097 9C9.66402 9 9.67706 9 9.69011 9C9.70316 9 9.71621 9 9.72927 9C9.74232 9 9.75538 9 9.76844 9C9.7815 9 9.79456 9 9.80763 9C9.8207 9 9.83376 9 9.84683 9C9.85991 9 9.87298 9 9.88605 9C9.89913 9 9.91221 9 9.92529 9C9.93837 9 9.95145 9 9.96453 9C9.97762 9 9.99071 9 10.0038 9C10.0169 9 10.03 9 10.0431 9C10.0562 9 10.0693 9 10.0824 9C10.0954 9 10.1085 9 10.1216 9C10.1347 9 10.1479 9 10.161 9C10.1741 9 10.1872 9 10.2003 9C10.2134 9 10.2265 9 10.2396 9C10.2527 9 10.2658 9 10.2789 9C10.2921 9 10.3052 9 10.3183 9C10.3314 9 10.3445 9 10.3576 9C10.3708 9 10.3839 9 10.397 9C10.4101 9 10.4232 9 10.4364 9C10.4495 9 10.4626 9 10.4757 9C10.4889 9 10.502 9 10.5151 9C10.5282 9 10.5414 9 10.5545 9C10.5676 9 10.5808 9 10.5939 9C10.607 9 10.6202 9 10.6333 9C10.6464 9 10.6596 9 10.6727 9C10.6858 9 10.699 9 10.7121 9C10.7252 9 10.7384 9 10.7515 9C10.7646 9 10.7778 9 10.7909 9C10.804 9 10.8172 9 10.8303 9C10.8435 9 10.8566 9 10.8697 9C10.8829 9 10.896 9 10.9091 9C10.9223 9 10.9354 9 10.9485 9C10.9617 9 10.9748 9 10.988 9C11.0011 9 11.0142 9 11.0274 9C11.0405 9 11.0536 9 11.0668 9C11.0799 9 11.093 9 11.1062 9C11.1193 9 11.1324 9 11.1456 9C11.1587 9 11.1718 9 11.185 9C11.1981 9 11.2112 9 11.2244 9C11.2375 9 11.2506 9 11.2637 9C11.2769 9 11.29 9 11.3031 9C11.3163 9 11.3294 9 11.3425 9C11.3556 9 11.3688 9 11.3819 9C11.395 9 11.4081 9 11.4212 9C11.4344 9 11.4475 9 11.4606 9C11.4737 9 11.4868 9 11.4999 9C11.5131 9 11.5262 9 11.5393 9C11.5524 9 11.5655 9 11.5786 9C11.5917 9 11.6048 9 11.6179 9C11.631 9 11.6441 9 11.6572 9C11.6703 9 11.6834 9 11.6965 9C11.7096 9 11.7227 9 11.7358 9C11.7489 9 11.762 9 11.7751 9C11.7882 9 11.8013 9 11.8144 9C11.8275 9 11.8405 9 11.8536 9C11.8667 9 11.8798 9 11.8929 9C11.9059 9 11.919 9 11.9321 9C11.9452 9 11.9582 9 11.9713 9C11.9844 9 11.9974 9 12.0105 9C12.0236 9 12.0366 9 12.0497 9C12.0627 9 12.0758 9 12.0888 9C12.1019 9 12.1149 9 12.128 9C12.141 9 12.1541 9 12.1671 9C12.1802 9 12.1932 9 12.2062 9C12.2193 9 12.2323 9 12.2453 9C12.2583 9 12.2714 9 12.2844 9C12.2974 9 12.3104 9 12.3234 9C12.3365 9 12.3495 9 12.3625 9C12.3755 9 12.3885 9 12.4015 9C12.4145 9 12.4275 9 12.4405 9C12.4535 9 12.4665 9 12.4794 9C12.4924 9 12.5054 9 12.5184 9C12.5314 9 12.5443 9 12.5573 9C12.5703 9 12.5833 9 12.5962 9C12.6092 9 12.6221 9 12.6351 9C12.648 9 12.661 9 12.6739 9C12.6869 9 12.6998 9 12.7128 9C12.7257 9 12.7386 9 12.7516 9C12.7645 9 12.7774 9 12.7903 9C12.8033 9 12.8162 9 12.8291 9C12.842 9 12.8549 9 12.8678 9C12.8807 9 12.8936 9 12.9065 9C12.9194 9 12.9323 9 12.9452 9C12.9581 9 12.9709 9 12.9838 9C12.9967 9 13.0095 9 13.0224 9C13.0353 9 13.0481 9 13.061 9C13.0738 9 13.0867 9 13.0995 9C13.1124 9 13.1252 9 13.138 9C13.1509 9 13.1637 9 13.1765 9C13.1893 9 13.2022 9 13.215 9C13.2278 9 13.2406 9 13.2534 9C13.2662 9 13.279 9 13.2918 9C13.3046 9 13.3173 9 13.3301 9C13.3429 9 13.3557 9 13.3684 9C13.3812 9 13.394 9 13.4067 9C13.4195 9 13.4322 9 13.4449 9C13.4577 9 13.4704 9 13.4832 9C13.4959 9 13.5086 9 13.5213 9C13.534 9 13.5468 9 13.5595 9C13.5722 9 13.5849 9 13.5975 9C13.6102 9 13.6229 9 13.6356 9C13.6483 9 13.661 9 13.6736 9C13.6863 9 13.6989 9 13.7116 9C13.7243 9 13.7369 9 13.7495 9C13.7622 9 13.7748 9 13.7874 9C13.8001 9 13.8127 9 13.8253 9C13.8379 9 13.8505 9 13.8631 9C13.8757 9 13.8883 9 13.9009 9C13.9135 9 13.926 9 13.9386 9C13.9512 9 13.9637 9 13.9763 9C13.9888 9 14.0014 9 14.0139 9C14.0265 9 14.039 9 14.0515 9C14.064 9 14.0766 9 14.0891 9C14.1016 9 14.1141 9 14.1266 9C14.1391 9 14.1515 9 14.164 9C14.1765 9 14.189 9 14.2014 9C14.2139 9 14.2264 9 14.2388 9C14.2512 9 14.2637 9 14.2761 9C14.2885 9 14.301 9 14.3134 9C14.3258 9 14.3382 9 14.3506 9C14.363 9 14.3754 9 14.3878 9C14.4002 9 14.4125 9 14.4249 9C14.4373 9 14.4496 9 14.462 9C14.4743 9 14.4866 9 14.499 9C14.5113 9 14.5236 9 14.5359 9C14.5483 9 14.5606 9 14.5729 9C14.5851 9 14.5974 9 14.6097 9C14.622 9 14.6343 9 14.6465 9C14.6588 9 14.671 9 14.6833 9C14.6955 9 14.7077 9 14.72 9C14.7322 9 14.7444 9 14.7566 9C14.7688 9 14.781 9 14.7932 9C14.8054 9 14.8176 9 14.8297 9C14.8419 9 14.854 9 14.8662 9C14.8783 9 14.8905 9 14.9026 9C14.9147 9 14.9269 9 14.939 9C14.9511 9 14.9632 9 14.9753 9C14.9874 9 14.9994 9 15.0115 9C15.0236 9 15.0356 9 15.0477 9C15.0597 9 15.0718 9 15.0838 9C15.0958 9 15.1079 9 15.1199 9C15.1319 9 15.1439 9 15.1559 9C15.1679 9 15.1798 9 15.1918 9C15.2038 9 15.2157 9 15.2277 9C15.2396 9 15.2516 9 15.2635 9C15.2754 9 15.2873 9 15.2992 9C15.3111 9 15.323 9 15.3349 9C15.3468 9 15.3587 9 15.3705 9C15.3824 9 15.3943 9 15.4061 9C15.4179 9 15.4298 9 15.4416 9C15.4534 9 15.4652 9 15.477 9C15.4888 9 15.5006 9 15.5124 9C15.5241 9 15.5359 9 15.5476 9C15.5594 9 15.5711 9 15.5829 9C15.5946 9 15.6063 9 15.618 9C15.6297 9 15.6414 9 15.6531 9C15.6648 9 15.6765 9 15.6881 9C15.6998 9 15.7114 9 15.7231 9C15.7347 9 15.7463 9 15.7579 9C15.7695 9 15.7811 9 15.7927 9C15.8043 9 15.8159 9 15.8275 9C15.839 9 15.8506 9 15.8621 9C15.8737 9 15.8852 9 15.8967 9C15.9082 9 15.9197 9 15.9312 9C15.9427 9 15.9542 9 15.9656 9C15.9771 9 15.9886 9 16 9L16 7Z" fill="#333333"/>
</svg>
