<svg width="16" height="15" viewBox="0 0 16 15" fill="none" xmlns="http://www.w3.org/2000/svg">
<path d="M15.0044 4.79091C14.8048 5.24664 14.6043 5.70198 14.4055 6.15771C14.2638 6.48261 14.0374 6.57744 13.7089 6.43939C13.2727 6.25574 12.8378 6.06888 12.4041 5.87963C12.1392 5.764 12.0268 5.51232 12.1248 5.27185C12.2252 5.02538 12.4857 4.93055 12.761 5.04258C12.9098 5.103 13.0567 5.16782 13.2039 5.23064C13.2375 5.18863 13.2075 5.15942 13.1959 5.13261C12.2956 3.09121 10.7648 1.82483 8.55374 1.46393C6.75561 1.17024 5.13433 1.63838 3.73471 2.80672C2.70521 3.66618 2.04942 4.7661 1.74533 6.07409C1.67811 6.36377 1.52926 6.49901 1.28559 6.49981C0.992705 6.50101 0.781043 6.25014 0.840661 5.96085C1.04232 4.98537 1.44084 4.0951 2.03541 3.29727C3.13414 1.82243 4.59177 0.894959 6.4019 0.584068C8.60775 0.205556 10.5703 0.768122 12.2552 2.25216C13.0295 2.93396 13.6012 3.76501 14.0221 4.74049C14.1314 4.51763 14.1826 4.26955 14.4463 4.20474C14.6787 4.14752 14.8504 4.23754 15.004 4.49802V4.79091H15.0044Z" fill="black"/>
<path d="M10.4095 6.29415C10.4207 6.77189 10.2579 7.17001 10.1006 7.57012C9.86334 8.1739 9.63287 8.78008 9.3932 9.38306C9.33439 9.5303 9.33719 9.62913 9.48803 9.72516C9.69569 9.8572 9.76531 10.1165 9.67729 10.3473C9.62367 10.4886 9.56365 10.6294 9.44242 10.7299C9.25276 10.8875 9.0443 10.9011 8.82744 10.7947C8.39811 10.5842 7.97038 10.3705 7.54226 10.1585C6.39272 9.58872 5.24318 9.01935 4.09364 8.44958C3.82916 8.31834 3.67752 8.09068 3.73234 7.85981C3.81396 7.51491 3.97561 7.27564 4.2825 7.23202C4.36852 7.21962 4.45375 7.22322 4.52577 7.26003C4.66781 7.33205 4.74103 7.26763 4.81065 7.1536C5.16116 6.57863 5.51526 6.00606 5.86576 5.43149C6.07182 5.09379 6.27188 4.75209 6.59558 4.50722C7.31419 3.96306 8.10282 3.82702 8.93947 4.16552C9.77612 4.50402 10.2515 5.14741 10.3875 6.04007C10.3955 6.09289 10.4039 6.1461 10.4083 6.19972C10.4119 6.24333 10.4091 6.28735 10.4091 6.29495L10.4095 6.29415Z" fill="black"/>
<path d="M1.00888 9.49189C0.929259 9.5471 0.911653 9.62192 0.876043 9.68354C0.73 9.93602 0.459921 10.03 0.229053 9.90601C0.00298619 9.78477 -0.0674355 9.51389 0.0706052 9.25782C0.301873 8.82809 0.537143 8.40076 0.775613 7.97504C0.923256 7.71176 1.16853 7.63934 1.43541 7.78218C1.87394 8.01745 2.31047 8.25672 2.74459 8.49999C2.97706 8.63043 3.05668 8.89651 2.94025 9.11537C2.82061 9.34064 2.55414 9.41986 2.31046 9.29823C2.16002 9.22301 2.01358 9.13898 1.83472 9.04255C1.96196 9.49749 2.12361 9.89881 2.33927 10.2753C3.30436 11.963 4.73798 13.0293 6.66095 13.313C9.10567 13.6735 11.0903 12.8145 12.5587 10.8195C13.1425 10.0264 13.4638 9.11938 13.5914 8.14389C13.6282 7.8622 13.8451 7.68335 14.1035 7.71416C14.3644 7.74537 14.5289 7.98104 14.4913 8.26952C14.1043 11.2212 11.9437 13.5767 9.01644 14.1645C6.75178 14.6194 4.73038 14.0536 2.98987 12.5352C2.0808 11.7421 1.44781 10.7555 1.0573 9.61392C1.04489 9.57751 1.02929 9.5423 1.00928 9.49189H1.00888Z" fill="black"/>
<path d="M9.40374 2.85273C9.88988 2.84753 10.2088 3.24405 10.0879 3.66177C10.0575 3.7674 10.0187 3.81462 9.90749 3.73219C9.63461 3.53053 9.33252 3.38249 9.00642 3.28806C8.90119 3.25725 8.88519 3.21284 8.944 3.12201C9.06044 2.94236 9.22769 2.86234 9.40374 2.85233V2.85273Z" fill="black"/>
<path d="M7.24367 11.5265C6.84756 11.5233 6.50666 11.1276 6.58108 10.7627C6.59988 10.6706 6.63229 10.6474 6.71872 10.691C7.04922 10.8579 7.38131 11.0219 7.71341 11.1856C7.79384 11.2252 7.79664 11.2648 7.73382 11.3268C7.62339 11.4369 7.40892 11.5277 7.24367 11.5265Z" fill="black"/>
</svg>
