<svg width="16" height="14" viewBox="0 0 16 14" fill="none" xmlns="http://www.w3.org/2000/svg">
<path d="M7.73431 0.465822C9.96662 0.465822 12.1989 0.465822 14.4312 0.465822C15.1001 0.465822 15.47 0.83506 15.47 1.5025C15.47 4.1146 15.47 6.72599 15.47 9.33809C15.47 10.0062 15.1001 10.3762 14.4326 10.3762C9.96803 10.3762 5.50341 10.3762 1.03879 10.3762C0.37135 10.3762 0 10.0055 0 9.33879C0 6.7267 0 4.1146 0 1.50321C0 0.835061 0.369238 0.465118 1.03738 0.465118C3.26969 0.465118 5.502 0.465118 7.73431 0.465118V0.465822ZM11.203 5.42346C11.2115 5.16957 11.0821 4.99655 10.8732 4.87558C9.46516 4.06185 8.05783 3.24671 6.64699 2.4372C6.17366 2.16572 5.69963 2.44353 5.69893 2.98719C5.69682 4.60762 5.69682 6.22734 5.69893 7.84777C5.69893 8.39354 6.16663 8.66924 6.64348 8.40691C6.87979 8.27679 7.11118 8.13684 7.34538 8.0025C8.51991 7.32451 9.69514 6.64722 10.8697 5.96853C11.0786 5.84756 11.2094 5.67665 11.203 5.42346Z" fill="currentColor"/>
<path d="M7.73154 13.4651C6.52255 13.4651 5.31285 13.4651 4.10386 13.4651C3.87247 13.4651 3.74166 13.3758 3.71212 13.2049C3.67414 12.9897 3.81762 12.8237 4.05674 12.8223C4.67425 12.8188 5.29176 12.8244 5.90926 12.8181C6.09283 12.816 6.32281 12.8997 6.4473 12.7738C6.56334 12.6563 6.48105 12.4299 6.48457 12.2519C6.4916 11.8918 6.4909 11.5317 6.48457 11.1716C6.48176 11.0296 6.51833 10.9628 6.67798 10.9642C7.38551 10.9712 8.09305 10.9698 8.80058 10.9642C8.94686 10.9628 8.98836 11.0211 8.98695 11.1583C8.98203 11.6471 8.99047 12.1359 8.98203 12.6247C8.97921 12.7801 9.03408 12.823 9.18318 12.8216C9.91603 12.816 10.6496 12.8216 11.3831 12.8181C11.5639 12.8174 11.7017 12.8751 11.7538 13.0579C11.815 13.2745 11.6623 13.4602 11.4176 13.4623C10.8648 13.4665 10.3113 13.4644 9.75849 13.4644C9.08331 13.4644 8.40813 13.4644 7.73225 13.4644L7.73154 13.4651Z" fill="currentColor"/>
</svg>
