<svg width="17" height="16" viewBox="0 0 17 16" fill="none" xmlns="http://www.w3.org/2000/svg">
<g clip-path="url(#clip0_1590_20156)">
<g clip-path="url(#clip1_1590_20156)">
<path d="M14.1254 5.00016H12.1344V3.66683C12.1344 2.92683 11.5437 2.3335 10.807 2.3335H6.82494C6.08826 2.3335 5.49758 2.92683 5.49758 3.66683V5.00016H3.50655C2.76987 5.00016 2.1792 5.5935 2.1792 6.3335V13.6668C2.1792 14.4068 2.76987 15.0002 3.50655 15.0002H14.1254C14.8621 15.0002 15.4527 14.4068 15.4527 13.6668V6.3335C15.4527 5.5935 14.8621 5.00016 14.1254 5.00016ZM6.82494 3.66683H10.807V5.00016H6.82494V3.66683ZM14.1254 13.6668H3.50655V12.3335H14.1254V13.6668ZM14.1254 10.3335H3.50655V6.3335H5.49758V7.66683H6.82494V6.3335H10.807V7.66683H12.1344V6.3335H14.1254V10.3335Z" fill="#828282"/>
</g>
</g>
<defs>
<clipPath id="clip0_1590_20156">
<rect width="15.9283" height="16" fill="white" transform="translate(0.852051)"/>
</clipPath>
<clipPath id="clip1_1590_20156">
<rect width="15.9283" height="16" fill="white" transform="translate(0.852051 1)"/>
</clipPath>
</defs>
</svg>
