<svg width="15" height="15" viewBox="0 0 15 15" fill="none" xmlns="http://www.w3.org/2000/svg">
<path d="M7.49061 14.4688C6.31851 14.4688 5.14642 14.4643 3.97433 14.4707C3.41792 14.4739 3.0457 14.2196 2.83155 13.7148C2.70472 13.4159 2.63206 13.1061 2.63589 12.7804C2.64098 12.356 2.61677 11.9315 2.70281 11.5089C2.9399 10.3406 3.93927 9.38143 5.10882 9.22082C5.4071 9.18003 5.68881 9.25524 5.9514 9.39354C6.98965 9.93912 8.02662 9.93975 9.0636 9.39354C9.62447 9.09781 10.1745 9.18831 10.7048 9.46365C11.8036 10.0341 12.3568 10.9519 12.3785 12.1864C12.3855 12.5695 12.4135 12.9563 12.3128 13.3349C12.2663 13.5102 12.2096 13.6817 12.1254 13.8423C11.9119 14.2508 11.5754 14.4675 11.1121 14.4682C9.9049 14.4707 8.69776 14.4688 7.49061 14.4688Z" fill="currentColor"/>
<path d="M4.13761 5.10925C4.1408 3.24308 5.65579 1.74466 7.5347 1.74785C9.38685 1.7504 10.8757 3.27814 10.8808 5.16279C10.8853 6.83584 9.54046 8.50252 7.51686 8.50252C5.44673 8.50252 4.10001 6.80398 4.13697 5.10925H4.13761Z" fill="currentColor"/>
<path d="M1.2459 11.4917C0.557555 11.4917 0.194901 11.203 0.0693427 10.4821C-0.0415569 9.84479 -0.0402822 9.19915 0.228681 8.59303C0.581775 7.79761 1.18726 7.30302 2.05725 7.16089C2.29434 7.12201 2.52315 7.18193 2.73284 7.29028C3.03622 7.44643 3.34789 7.56816 3.69079 7.60067C3.74815 7.6064 3.80933 7.6166 3.84757 7.66759C3.98397 7.84987 4.12674 8.02578 4.27779 8.19596C4.37339 8.30431 4.24911 8.31833 4.1892 8.34063C3.77683 8.49679 3.3976 8.70966 3.05662 8.98946C2.33705 9.57965 1.87369 10.3279 1.66528 11.2349C1.62576 11.4065 1.5155 11.4923 1.33449 11.4923C1.30517 11.4923 1.27649 11.4923 1.24717 11.4923L1.2459 11.4917Z" fill="currentColor"/>
<path d="M14.998 9.81611C15.0082 10.159 14.9802 10.4879 14.8597 10.804C14.6845 11.2642 14.362 11.4885 13.8725 11.4917C13.4231 11.4943 13.4308 11.4917 13.3078 11.0621C12.9368 9.76703 12.1197 8.86836 10.8744 8.35848C10.6634 8.27244 10.6832 8.29156 10.8062 8.11119C11.0401 7.76893 11.3218 7.53757 11.7558 7.50698C11.933 7.49423 12.0936 7.38588 12.2549 7.30302C12.564 7.14432 12.8833 7.11373 13.2205 7.20678C14.1657 7.46682 14.8878 8.32916 14.9751 9.30113C14.991 9.47576 15.0038 9.64912 14.9987 9.81547L14.998 9.81611Z" fill="currentColor"/>
<path d="M1.25687 3.91485C1.14788 2.58279 2.18741 1.27876 3.54816 1.04676C4.06505 0.958809 4.56983 1.00406 5.05932 1.1959C5.11095 1.2163 5.18934 1.22204 5.19508 1.28768C5.20018 1.34313 5.12879 1.36162 5.08673 1.38966C3.93822 2.15512 3.27027 3.22396 3.08353 4.5879C3.00704 5.14686 3.05166 5.70327 3.19506 6.25076C3.20908 6.30429 3.25306 6.3693 3.19889 6.41201C3.15555 6.44579 3.09819 6.40181 3.05102 6.38269C1.94649 5.92634 1.37032 5.08695 1.25687 3.91422V3.91485Z" fill="currentColor"/>
<path d="M13.7546 3.78292C13.7527 4.92442 13.0796 5.93208 12.0363 6.35528C12.0038 6.36866 11.9713 6.38141 11.9381 6.39161C11.8954 6.40436 11.8476 6.44451 11.8087 6.40244C11.7737 6.36484 11.8036 6.31321 11.8151 6.26987C11.8884 5.98753 11.9337 5.70135 11.9528 5.40945C12.0102 4.53054 11.8196 3.70899 11.3926 2.94225C11.0369 2.30426 10.5455 1.79119 9.9362 1.38966C9.8935 1.36161 9.82275 1.34632 9.82275 1.29151C9.82275 1.2214 9.9037 1.21757 9.95341 1.19718C11.7699 0.470594 13.7571 1.82306 13.7546 3.78292Z" fill="currentColor"/>
</svg>
