<svg width="21" height="20" viewBox="0 0 21 20" fill="none" xmlns="http://www.w3.org/2000/svg">
<path d="M11.8891 4.61103C12.7769 4.78611 13.5917 5.22403 14.2276 5.86795C14.8634 6.51187 15.2911 7.33206 15.455 8.22207L11.8891 4.61103ZM11.8891 0.999996C13.7291 1.19388 15.4479 2.01 16.7611 3.31339C18.0744 4.61678 18.9034 6.32935 19.1111 8.1679L11.8891 0.999996ZM19.1111 14.4872V17.1955C19.1111 17.6743 18.9209 18.1336 18.5823 18.4722C18.2437 18.8108 17.7845 19.001 17.3056 19.001H17.1341C14.3562 18.6992 11.6878 17.7499 9.34329 16.2295C7.16244 14.843 5.31324 12.9938 3.92674 10.813C2.38656 8.45537 1.42462 5.76751 1.11916 2.96801C1.09679 2.73142 1.12136 2.49274 1.19143 2.26566C1.26151 2.03859 1.37573 1.82758 1.52754 1.64474C1.67935 1.4619 1.86575 1.31083 2.07607 1.20019C2.28639 1.08955 2.51648 1.02152 2.75315 0.999996H5.62393C6.06204 0.995684 6.48678 1.15083 6.81896 1.43651C7.15115 1.72219 7.36813 2.11892 7.42944 2.55274C7.54496 3.41922 7.75691 4.27008 8.06138 5.08949C8.18284 5.41261 8.20912 5.76378 8.13712 6.10138C8.06512 6.43898 7.89785 6.74887 7.65513 6.99432L6.50863 8.14082C7.79376 10.4009 9.66509 12.2722 11.9252 13.5574L13.0717 12.4109C13.3171 12.1682 13.627 12.0009 13.9646 11.9289C14.3022 11.8569 14.6534 11.8832 14.9765 12.0046C15.7959 12.3091 16.6468 12.521 17.5133 12.6366C17.9518 12.6984 18.3523 12.9193 18.6386 13.2572C18.9249 13.5951 19.077 14.0264 19.066 14.4692L19.1111 14.4872Z" stroke="#3C4858" stroke-width="2" stroke-linecap="round" stroke-linejoin="round"/>
</svg>
