<svg
  width="36"
  height="32"
  viewBox="0 0 36 32"
  fill="none"
  xmlns="http://www.w3.org/2000/svg"
>
<path
    d="M15.3794 0.599703C19.3186 0.599703 23.2578 0.599703 27.197 0.599703C29.2659 0.599703 30.6715 2.0032 30.674 4.06516C30.674 6.07301 30.6632 8.08086 30.684 10.0887C30.6881 10.5166 30.5475 10.6381 30.1347 10.624C29.1868 10.5907 29.3025 10.7072 29.2975 9.76406C29.2925 7.96432 29.2975 6.16458 29.2975 4.36401C29.2975 3.276 29.2975 3.28183 28.3521 3.73967C24.5721 5.57105 20.7914 7.40048 17.0098 9.22797C15.8655 9.78487 14.7578 9.75074 13.6151 9.20466C9.71118 7.33999 5.79808 5.49779 1.88831 3.64727C1.48801 3.45748 1.45306 3.47413 1.39813 3.89701C1.38274 4.04855 1.3769 4.20091 1.38065 4.35318C1.38065 9.42109 1.38065 14.489 1.38065 19.5569C1.38065 20.1837 1.49051 20.7706 1.9449 21.2434C2.41178 21.7296 3.00681 21.8644 3.65178 21.8644C7.31356 21.8644 10.9753 21.8664 14.6371 21.8703C14.8685 21.8703 15.2113 21.7296 15.3129 22.0084C15.4377 22.3514 15.4127 22.7518 15.3129 23.1123C15.2604 23.3071 15.0274 23.2371 14.871 23.238C13.4146 23.243 11.9582 23.238 10.5018 23.238C8.14439 23.238 5.78643 23.238 3.42792 23.238C1.42143 23.2413 0 21.822 0 19.8116C0 14.55 0 9.28818 0 4.02603C0 2.01902 1.42476 0.6022 3.43707 0.600535C7.41509 0.598316 11.3959 0.598038 15.3794 0.599703ZM28.1374 2.18884C27.7471 2.01152 27.3434 1.9749 26.9282 1.9749C19.2029 1.9749 11.4777 1.9749 3.75248 1.9749C3.43348 1.96843 3.11502 2.00425 2.80542 2.08145C2.67559 2.11641 2.49333 2.11059 2.44673 2.32036C2.52246 2.36032 2.59403 2.4036 2.66727 2.43607C6.55984 4.28964 10.4513 6.14432 14.3417 8.00011C15.0482 8.33808 15.7198 8.30562 16.4164 7.96598C20.2047 6.12074 23.9954 4.28076 27.7887 2.44606C27.9069 2.38862 28.0558 2.36615 28.1374 2.18884Z"
    fill="currentColor"
  />
<path
    d="M36 22.5689C36 27.3971 32.1402 31.2022 27.2883 31.2263C22.5563 31.2513 18.5991 27.2747 18.6274 22.5023C18.6549 17.7849 22.6021 13.8374 27.3541 13.8832C32.1602 13.9307 36.0017 17.7516 36 22.5689ZM27.3349 29.8436C31.4295 29.7504 34.6027 26.6146 34.6002 22.5548C34.5977 18.4949 31.412 15.2959 27.3283 15.2917C23.2254 15.2917 20.0247 18.5066 20.0422 22.5822C20.0563 26.6895 23.2937 29.7704 27.3349 29.8436Z"
    fill="currentColor"
  />
<path
    d="M26.6311 20.6862C26.6311 20.1193 26.6419 19.5524 26.6261 18.9855C26.6178 18.6766 26.7093 18.5326 27.0464 18.5393C28.1774 18.5626 27.9943 18.4277 28.0076 19.4766C28.0167 20.2649 28.0217 21.0533 28.0034 21.8407C27.9962 21.9773 28.0203 22.1136 28.0738 22.2394C28.1273 22.3653 28.2088 22.4772 28.3122 22.5666C28.9597 23.1901 29.5822 23.8403 30.2263 24.4629C30.4485 24.676 30.4493 24.8126 30.2263 25.0332C29.5156 25.7449 29.5239 25.7532 28.8115 25.0382C28.1849 24.4122 27.5632 23.7828 26.929 23.1635C26.8272 23.0708 26.747 22.9568 26.694 22.8296C26.6411 22.7025 26.6168 22.5652 26.6228 22.4276C26.6411 21.8516 26.6311 21.2689 26.6311 20.6862Z"
    fill="currentColor"
  />
</svg>
