<svg
  width="46"
  height="23"
  viewBox="0 0 46 23"
  fill="none"
  xmlns="http://www.w3.org/2000/svg"
>
<path
    d="M46 20.6554C45.7256 21.2134 45.4097 21.731 44.8015 21.9929C44.4862 22.132 44.1454 22.204 43.8009 22.2044C34.7487 22.2044 25.6972 22.2044 16.6463 22.2044C15.2786 22.2044 14.3725 21.2881 14.3716 19.912C14.3668 14.241 14.3668 8.5707 14.3716 2.90097C14.3716 1.50589 15.2804 0.613034 16.6913 0.612134C25.6984 0.603133 34.7053 0.598633 43.7118 0.598633C44.8446 0.598633 45.5609 1.15487 46 2.15032V20.6554ZM44.6053 4.26275C44.4172 4.39505 44.2949 4.47426 44.1806 4.56336C40.6884 7.26352 37.2079 9.97898 33.7032 12.6638C31.5112 14.3433 28.882 14.3289 26.6927 12.6485C23.654 10.3156 20.6325 7.96016 17.6046 5.61553C17.044 5.1808 16.4798 4.75057 15.877 4.28705V18.5151C16.0038 18.4251 16.0758 18.3702 16.1469 18.3162C18.3712 16.5947 20.5962 14.8729 22.8217 13.1508C23.0049 12.9969 23.2002 12.8582 23.4057 12.7358C23.7404 12.5558 24.0518 12.6359 24.2884 12.924C24.5251 13.212 24.5053 13.5126 24.2758 13.7862C24.1359 13.9418 23.9796 14.0818 23.8097 14.2038C21.409 16.0642 19.0011 17.9165 16.6112 19.7887C16.3764 19.9687 15.8995 20.0884 16.0254 20.4691C16.1514 20.8498 16.6121 20.7391 16.945 20.7391C25.789 20.7433 34.6336 20.7433 43.4787 20.7391C43.6425 20.7391 43.8081 20.7391 43.9718 20.7283C44.1761 20.7157 44.3722 20.65 44.4532 20.4529C44.5522 20.2108 44.2985 20.1577 44.1734 20.0605C42.0012 18.3684 39.8255 16.6811 37.6462 14.9986C37.1962 14.6503 36.7391 14.3118 36.2964 13.9509C35.9437 13.6611 35.8897 13.2417 36.1336 12.9167C36.3666 12.6053 36.7508 12.5567 37.1341 12.8015C37.2475 12.8735 37.3546 12.9564 37.4608 13.0392C39.495 14.6148 41.53 16.1905 43.566 17.7662C43.889 18.0155 44.1869 18.3063 44.608 18.4926L44.6053 4.26275ZM30.2011 2.06302H17.0071C16.8272 2.06302 16.6472 2.06302 16.4672 2.07112C16.2603 2.07922 16.0668 2.14942 15.9921 2.34923C15.9022 2.57695 16.1325 2.65435 16.2621 2.75606C19.9729 5.63623 23.6861 8.51189 27.4018 11.3831C29.2914 12.8375 31.1387 12.8312 33.0202 11.3777C36.6794 8.5515 40.3318 5.71963 43.9772 2.88207C44.1572 2.74076 44.5342 2.66605 44.4361 2.36094C44.3273 2.02072 43.9574 2.06932 43.6596 2.06302C43.5102 2.06302 43.3609 2.06302 43.2097 2.06302H30.2011Z"
    fill="currentColor"
  />
<path
    d="M6.42424 17.8879H1.04157C0.848107 17.8879 0.651946 17.905 0.465685 17.8284C0.176845 17.7087 0.00138394 17.5053 0.00138394 17.1813C-0.00833247 17.0303 0.0333288 16.8804 0.119589 16.756C0.205849 16.6317 0.331629 16.5401 0.476482 16.4964C0.677665 16.4364 0.88783 16.4123 1.09735 16.4253C4.68641 16.4253 8.27576 16.4253 11.8654 16.4253C12.0295 16.4194 12.1937 16.4345 12.354 16.4703C12.7139 16.5648 12.9236 16.8069 12.9092 17.1903C12.8948 17.5737 12.659 17.7897 12.3009 17.8663C12.1385 17.8915 11.9738 17.8997 11.8096 17.8906L6.42424 17.8879Z"
    fill="currentColor"
  />
<path
    d="M7.9188 12.8286H11.8654C12.0597 12.8286 12.2541 12.8196 12.4404 12.897C12.7301 13.0176 12.9038 13.2292 12.9092 13.5451C12.9146 13.8817 12.7373 14.1058 12.4278 14.23C12.2415 14.3056 12.0462 14.2912 11.8528 14.2912H3.91463C3.78032 14.2977 3.64569 14.292 3.51241 14.2741C3.12999 14.203 2.88794 13.9798 2.88254 13.5775C2.87714 13.1752 3.1021 12.9375 3.48452 12.8574C3.63312 12.8327 3.78396 12.8239 3.93443 12.8313C5.26015 12.8283 6.58828 12.8274 7.9188 12.8286Z"
    fill="currentColor"
  />
<path
    d="M9.29552 10.6964C8.429 10.6964 7.56338 10.6964 6.69686 10.6964C6.09128 10.6964 5.75835 10.4336 5.75115 9.9764C5.74395 9.51917 6.08048 9.23926 6.67346 9.23926C8.45059 9.23926 10.2286 9.23926 12.0058 9.23926C12.3189 9.23926 12.6014 9.30676 12.7913 9.58128C12.8628 9.67872 12.9058 9.79413 12.9155 9.91461C12.9252 10.0351 12.9012 10.1559 12.8462 10.2635C12.6941 10.5821 12.4098 10.6991 12.0732 10.7009C11.1473 10.7009 10.2214 10.7009 9.29552 10.7009V10.6964Z"
    fill="currentColor"
  />
<path
    d="M10.7937 5.63859C11.2275 5.63859 11.6621 5.62779 12.0958 5.63859C12.588 5.65479 12.9056 5.94461 12.9119 6.35863C12.9182 6.77266 12.6033 7.07867 12.112 7.09217C11.2122 7.10928 10.3123 7.11108 9.41883 7.09217C8.91494 7.07957 8.61711 6.77086 8.62701 6.35413C8.63691 5.93741 8.94734 5.65839 9.44673 5.64489C9.89484 5.62869 10.3447 5.63859 10.7937 5.63859Z"
    fill="currentColor"
  />
</svg>
