<svg
  width="31"
  height="31"
  viewBox="0 0 31 31"
  fill="none"
  xmlns="http://www.w3.org/2000/svg"
>
<path
    d="M13.3088 30.598C12.5853 30.3095 12.3254 29.8003 12.3616 29.1281C12.3864 28.6589 12.3616 28.1896 12.3683 27.7204C12.3817 26.9168 12.9437 26.43 13.8635 26.43C15.1221 26.4272 16.3813 26.4272 17.6413 26.43C18.5698 26.43 19.101 26.8722 19.1379 27.6758C19.1459 27.8477 19.1801 27.9621 19.4152 27.9456C20.6157 27.8635 21.8136 27.7697 22.9444 27.3644C24.4933 26.8077 25.2315 25.722 25.5203 24.3442C25.5873 24.0098 25.6174 23.6684 25.6643 23.33C25.6945 23.113 25.5792 23.0332 25.3367 23.0367C25.0373 23.0408 24.7338 23.0578 24.4363 23.0103C24.0417 22.947 23.8334 22.7499 23.7999 22.398C23.7919 22.3106 23.7959 22.222 23.7959 22.1346C23.7959 18.661 23.7959 15.1876 23.7959 11.7144C23.7959 10.9859 24.0096 10.8017 24.8497 10.8005H24.9167C25.7487 10.7847 25.7501 10.929 25.6469 10.0967C25.198 6.48231 23.0536 3.92315 19.2591 2.44444C17.9595 1.93766 16.5714 1.73177 15.1545 1.757C12.7359 1.78988 10.4065 2.56195 8.56942 3.93963C6.73229 5.31731 5.50299 7.21392 5.0942 9.3013C5.01473 9.69488 4.9686 10.0931 4.95619 10.4926C4.95083 10.7161 5.02988 10.8211 5.29852 10.8041C5.4995 10.7917 5.70048 10.8005 5.90145 10.8041C6.58009 10.8088 6.834 11.0264 6.83467 11.617C6.83735 13.1393 6.83735 14.6615 6.83467 16.1834C6.83467 18.1835 6.83467 20.1837 6.83467 22.1839C6.83467 22.8496 6.59952 23.0584 5.82978 23.0508C4.96289 23.0426 4.08796 23.1095 3.2318 22.9446C1.46654 22.6074 0.351115 21.4501 0.330347 19.8693C0.308016 17.9086 0.308016 15.9476 0.330347 13.9861C0.347095 12.406 1.41696 11.271 3.18892 10.9179C3.47029 10.8592 3.59557 10.7747 3.60294 10.4996C3.66993 8.09475 4.64736 5.98315 6.42467 4.17009C8.13299 2.42626 10.2841 1.27895 12.862 0.830821C16.8193 0.142788 20.3317 0.982153 23.3189 3.37179C25.3434 4.99128 26.5084 7.02663 26.9365 9.38929C27.0146 9.78368 27.0467 10.184 27.0323 10.5841C27.0229 10.7601 27.1046 10.8545 27.3056 10.8874C27.4919 10.918 27.6756 10.9594 27.8556 11.0111C29.3436 11.4387 30.2774 12.5362 30.2955 13.9521C30.3196 15.923 30.3196 17.8938 30.2955 19.8646C30.2741 21.4483 29.1526 22.6132 27.3894 22.9306C27.1113 22.981 27.037 23.0825 27.0229 23.3183C26.9512 24.5612 26.6699 25.7584 25.864 26.8136C25.0895 27.8283 23.9674 28.4102 22.6483 28.7357C21.624 28.9891 20.5715 29.0918 19.5157 29.1381C19.2303 29.1504 19.1272 29.2167 19.1318 29.476C19.1412 30.049 18.7466 30.3834 18.1846 30.5986L13.3088 30.598ZM5.46801 16.9007C5.46801 15.3704 5.46333 13.8401 5.47271 12.3098C5.47271 12.0722 5.39433 11.9725 5.11229 11.9848C4.72373 12.0012 4.33316 11.9848 3.94393 11.9948C2.59939 12.0317 1.71843 12.7989 1.68427 13.9785C1.66417 14.6795 1.67288 15.3816 1.67355 16.0837C1.67355 17.3506 1.6635 18.6182 1.68895 19.8852C1.70905 20.8735 2.38635 21.5539 3.48369 21.7574C4.01293 21.856 4.54954 21.7879 5.08079 21.8161C5.397 21.8349 5.47538 21.7211 5.47337 21.4601C5.46198 19.9397 5.46801 18.4188 5.46801 16.9007ZM25.1639 16.9007C25.1639 18.4311 25.1733 19.9614 25.1558 21.4911C25.1558 21.7938 25.2617 21.8941 25.5946 21.863C25.815 21.8425 26.0395 21.863 26.2646 21.8577C28.1209 21.8114 28.9403 21.077 28.9443 19.4587C28.947 18.5621 28.949 17.6654 28.9503 16.7688C28.9503 15.8139 28.9744 14.8584 28.9403 13.904C28.9047 12.9292 28.1812 12.2347 27.0933 12.071C26.5982 11.9965 26.0964 12.0124 25.596 11.9954C25.261 11.9854 25.1538 12.0657 25.1572 12.3696C25.1712 13.8765 25.1619 15.3868 25.1619 16.8972L25.1639 16.9007ZM15.7702 27.6348C15.192 27.6348 14.6139 27.6389 14.0357 27.6348C13.83 27.6348 13.7275 27.6858 13.7322 27.8829C13.7416 28.3111 13.743 28.7398 13.7322 29.168C13.7269 29.3792 13.8394 29.4331 14.0571 29.4326C15.1913 29.4279 16.3255 29.4261 17.4597 29.4326C17.7109 29.4326 17.7886 29.3422 17.7833 29.1346C17.7726 28.7256 17.7726 28.3167 17.7833 27.9081C17.788 27.7087 17.7056 27.6295 17.4724 27.6336C16.903 27.6348 16.3356 27.6295 15.7681 27.6295L15.7702 27.6348Z"
    fill="currentColor"
  />
</svg>
