<svg
  width="32"
  height="33"
  viewBox="0 0 32 33"
  fill="none"
  xmlns="http://www.w3.org/2000/svg"
>
<path
    d="M17.3298 0.808594C17.9046 0.893684 18.4807 0.966888 19.053 1.06574C19.4734 1.13895 19.6823 1.34604 19.7142 1.66388C19.7605 2.12186 19.4139 2.43782 18.9204 2.37463C18.4776 2.31832 18.0379 2.23386 17.5944 2.18693C14.9948 1.90038 12.4985 2.29392 10.1029 3.33941C8.43804 4.06418 6.92592 5.09858 5.64687 6.38764C3.50144 8.53867 2.11723 11.1114 1.56867 14.1033C0.961322 17.4162 1.44921 20.5815 2.97916 23.5828C3.32943 24.271 3.75352 24.9117 4.19636 25.543C4.34586 25.7557 4.48096 25.7757 4.71614 25.6862C6.25423 25.1013 7.92742 26.0072 8.24892 27.6196C8.45971 28.6782 8.1332 29.5898 7.2744 30.2523C6.4156 30.9149 5.44985 31.0063 4.48346 30.5239C3.54522 30.0546 3.04483 29.2625 3.01606 28.1958C2.99901 27.7671 3.09523 27.3416 3.29503 26.962C3.40762 26.7499 3.36633 26.6072 3.23248 26.4295C1.4811 24.0971 0.428402 21.4768 0.105023 18.5818C-0.218356 15.6681 0.200101 12.8533 1.42919 10.1798C2.9973 6.76679 5.46986 4.20658 8.80248 2.48975C10.5743 1.57678 12.5083 1.02128 14.4945 0.854894C14.5658 0.844722 14.6364 0.829882 14.7059 0.810471L17.3298 0.808594ZM5.65438 29.4978C6.01219 29.4945 6.35442 29.3509 6.60744 29.0978C6.86047 28.8447 7.00405 28.5024 7.00732 28.1445C7.00732 27.4469 6.37119 26.8112 5.66314 26.8062C4.93569 26.8012 4.30957 27.4319 4.31833 28.1676C4.32258 28.5202 4.4649 28.857 4.71472 29.1057C4.96454 29.3544 5.30192 29.4952 5.65438 29.4978Z"
    fill="currentColor"
  />
<path
    d="M32 18.1054C31.885 18.9388 31.778 19.7722 31.5803 20.5924C30.0792 26.8328 24.8532 31.646 18.5201 32.6158C16.7082 32.8957 14.8623 32.8702 13.0589 32.5401C12.5516 32.4475 12.2764 32.1453 12.3465 31.7643C12.3607 31.6735 12.3937 31.5867 12.4432 31.5094C12.4927 31.432 12.5577 31.3658 12.6341 31.3148C12.7106 31.2639 12.7967 31.2294 12.8872 31.2135C12.9776 31.1976 13.0704 31.2006 13.1596 31.2224C14.0779 31.4055 15.0117 31.4987 15.9481 31.5009C17.4478 31.5085 18.9398 31.2851 20.3715 30.8383C22.6518 30.1413 24.7232 28.8888 26.4 27.1932C28.8125 24.7625 30.2474 21.8394 30.6183 18.4232C31.0237 14.688 30.1098 11.2869 27.9581 8.21427C27.6673 7.79882 27.6704 7.8201 27.1913 7.95399C26.1035 8.25806 25.1447 8.02844 24.3884 7.16628C23.6491 6.32288 23.5253 5.3456 23.9744 4.34266C24.4235 3.33972 25.2341 2.80728 26.34 2.79414C28.3578 2.77099 29.6326 4.82504 28.7337 6.64322C28.6412 6.83092 28.6543 6.95606 28.7769 7.12061C30.5414 9.45746 31.5766 12.089 31.9369 14.9908C31.9575 15.1548 31.9294 15.3256 31.9994 15.4832L32 18.1054ZM26.3844 4.09052C26.0321 4.09367 25.6946 4.23259 25.4421 4.47838C25.1896 4.72416 25.0416 5.05787 25.0289 5.41004C25.012 6.11954 25.6644 6.7865 26.3712 6.78087C26.729 6.77644 27.0706 6.63156 27.3226 6.37746C27.5745 6.12336 27.7165 5.78041 27.7179 5.42255C27.7147 5.07002 27.573 4.73289 27.3236 4.48384C27.0741 4.23478 26.7368 4.09375 26.3844 4.09114V4.09052Z"
    fill="currentColor"
  />
<path
    d="M22.2379 26.4212C22.1459 26.4183 22.0554 26.3974 21.9716 26.3595C21.8878 26.3216 21.8123 26.2675 21.7494 26.2003C21.5355 25.9876 21.3172 25.7786 21.1095 25.5596C20.9894 25.4345 20.8762 25.4201 20.7236 25.5027C20.1417 25.8273 19.5247 26.0847 18.8846 26.2698C18.697 26.3211 18.6344 26.4306 18.6413 26.6114C18.6469 26.8817 18.6513 27.1526 18.6363 27.4247C18.6069 27.9541 18.3705 28.1755 17.8488 28.1755C16.6208 28.178 15.3929 28.178 14.1653 28.1755C13.6712 28.1755 13.4203 27.9315 13.3991 27.4323C13.3872 27.162 13.3878 26.8904 13.3991 26.6189C13.4053 26.4218 13.3296 26.3142 13.1351 26.2604C12.5133 26.0838 11.9143 25.8354 11.35 25.5202C11.1623 25.4157 11.0303 25.4408 10.889 25.5965C10.7013 25.8043 10.498 26.0001 10.2935 26.1928C9.97137 26.4969 9.63798 26.5056 9.32899 26.2034C8.41827 25.3037 7.5134 24.3984 6.61436 23.4874C6.30599 23.1746 6.3135 22.8436 6.61436 22.5227C6.81389 22.3106 7.0178 22.1016 7.23235 21.9051C7.38246 21.7675 7.38997 21.643 7.2949 21.4672C6.97552 20.8939 6.72163 20.2865 6.53804 19.6565C6.48363 19.4688 6.37542 19.4112 6.19778 19.4144C5.94758 19.4194 5.69739 19.4219 5.44719 19.4144C4.86986 19.3918 4.63905 19.1528 4.63843 18.5829C4.63843 17.3862 4.63843 16.1893 4.63843 14.9922C4.63843 14.4197 4.87799 14.1863 5.45157 14.1682C5.77244 14.1582 6.13961 14.2808 6.40107 14.1131C6.66252 13.9454 6.62749 13.5538 6.75071 13.2703C6.92085 12.8787 7.06346 12.4751 7.28926 12.111C7.39685 11.9358 7.37433 11.8125 7.22671 11.6768C7.01967 11.4891 6.82453 11.2851 6.63062 11.0818C6.311 10.747 6.30036 10.4161 6.61874 10.0945C7.5111 9.19184 8.40764 8.29401 9.30835 7.40098C9.63486 7.07814 9.96199 7.0844 10.296 7.40098C10.5074 7.6012 10.7145 7.80704 10.9146 8.01851C11.0316 8.14365 11.1354 8.16867 11.2943 8.08108C11.8597 7.76363 12.4597 7.51234 13.0826 7.33216C13.329 7.26083 13.4147 7.12694 13.3953 6.88043C13.3802 6.63039 13.3802 6.37967 13.3953 6.12963C13.4216 5.65163 13.6747 5.4122 14.1547 5.41137C15.3923 5.40845 16.6304 5.40845 17.8688 5.41137C18.3623 5.41137 18.6125 5.65663 18.6338 6.15716C18.6451 6.42745 18.6426 6.69836 18.6338 6.97053C18.6294 7.1551 18.7076 7.2527 18.884 7.30776C19.5332 7.49911 20.1588 7.76271 20.7492 8.09359C20.8806 8.16992 20.9788 8.14615 21.0801 8.04166C21.2903 7.82518 21.5029 7.61058 21.7212 7.40223C22.0552 7.0844 22.3849 7.07501 22.7089 7.39535C23.6121 8.28838 24.5099 9.18517 25.4022 10.0857C25.7231 10.4098 25.715 10.7402 25.3979 11.0743C25.1971 11.2851 24.9913 11.4922 24.7799 11.6924C24.6548 11.81 24.6298 11.9183 24.7173 12.0753C25.0435 12.6564 25.3017 13.2733 25.4867 13.9135C25.5399 14.095 25.6331 14.1707 25.8182 14.1638C26.099 14.1569 26.3811 14.1544 26.6607 14.1669C27.1467 14.1882 27.3869 14.4353 27.3876 14.9127C27.3909 16.1615 27.3909 17.4104 27.3876 18.6592C27.3876 19.104 27.1886 19.3387 26.7439 19.3887C26.4436 19.4142 26.1419 19.4209 25.8407 19.4087C25.6456 19.4087 25.5399 19.4757 25.4829 19.6728C25.303 20.293 25.0528 20.8906 24.7373 21.454C24.631 21.6417 24.6517 21.7719 24.8093 21.9145C25.0176 22.1022 25.2133 22.3056 25.406 22.5095C25.7106 22.833 25.725 23.1658 25.4198 23.4756C24.5134 24.394 23.5977 25.3025 22.6845 26.2141C22.5688 26.3394 22.4083 26.4139 22.2379 26.4212ZM9.78623 8.80059C9.75439 8.81871 9.72425 8.83965 9.69616 8.86316C9.15907 9.39873 8.62198 9.93534 8.08489 10.473C7.97293 10.5844 8.05799 10.6563 8.13305 10.732C8.31632 10.9166 8.50834 11.0949 8.68098 11.287C8.93868 11.5692 8.97996 11.8213 8.78168 12.1398C8.2453 13.0086 7.85128 13.9576 7.61452 14.9509C7.52257 15.3263 7.30178 15.4783 6.91272 15.4914C6.66252 15.5002 6.41233 15.499 6.16213 15.4914C5.99012 15.4914 5.92006 15.564 5.92069 15.7355C5.92444 16.4324 5.92569 17.1294 5.92069 17.8264C5.92069 18.0141 5.98762 18.093 6.17652 18.0873C6.41545 18.0798 6.65502 18.0836 6.89395 18.0873C7.30678 18.0936 7.51945 18.2375 7.6164 18.636C7.8516 19.619 8.24269 20.5579 8.7748 21.4171C8.98184 21.7487 8.93806 22.0084 8.67222 22.2974C8.50334 22.4807 8.3257 22.6572 8.14368 22.828C8.02422 22.94 7.99294 23.0276 8.12805 23.1596C8.64095 23.6601 9.14843 24.1677 9.65049 24.6825C9.7637 24.7976 9.84627 24.802 9.95824 24.6825C10.143 24.4847 10.3344 24.2937 10.5324 24.1094C10.7701 23.8879 11.0491 23.8215 11.3331 23.9992C12.2168 24.5505 13.1847 24.9536 14.1984 25.1924C14.5581 25.2787 14.7088 25.5102 14.7189 25.8806C14.7251 26.1309 14.7264 26.3811 14.7189 26.6314C14.7138 26.8153 14.7814 26.8948 14.9747 26.8936C15.6715 26.8881 16.3683 26.8881 17.0651 26.8936C17.2602 26.8936 17.3196 26.8047 17.3153 26.6258C17.309 26.3868 17.3109 26.1471 17.3153 25.9081C17.3234 25.5015 17.4729 25.29 17.8732 25.1905C18.8563 24.9565 19.795 24.5648 20.6529 24.0305C20.9806 23.824 21.244 23.8697 21.5286 24.1388C21.7106 24.3102 21.8882 24.486 22.0584 24.6687C22.1716 24.7901 22.2579 24.817 22.3886 24.6825C22.889 24.1686 23.3961 23.6605 23.9098 23.1583C24.0262 23.0438 24.0249 22.96 23.9098 22.8499C23.7222 22.6716 23.5383 22.4857 23.3594 22.2968C23.1286 22.0528 23.0466 21.7669 23.2343 21.4709C23.7902 20.5771 24.1968 19.5987 24.4384 18.5741C24.5153 18.2563 24.7511 18.0948 25.0845 18.0911C25.3347 18.0911 25.5849 18.083 25.8351 18.0911C26.0284 18.0973 26.1203 18.0341 26.1178 17.8246C26.1103 17.138 26.1103 16.4512 26.1178 15.7642C26.1178 15.559 26.0359 15.4858 25.8388 15.4933C25.6105 15.5021 25.381 15.499 25.1508 15.4933C24.7261 15.4827 24.5109 15.33 24.4115 14.9183C24.1791 13.9457 23.7931 13.0164 23.2681 12.1654C23.0517 11.815 23.0929 11.5679 23.3794 11.2632C23.5508 11.0811 23.7266 10.9035 23.9092 10.7333C24.0287 10.6225 24.0237 10.5393 23.9092 10.4254C23.3975 9.92241 22.8901 9.41479 22.3867 8.90258C22.2541 8.76743 22.1672 8.79997 22.0552 8.91884C21.8764 9.10654 21.6937 9.29424 21.5011 9.46818C21.2621 9.68528 20.9838 9.7491 20.6992 9.57079C19.8057 9.01488 18.8272 8.60909 17.8025 8.36951C17.4842 8.29318 17.3234 8.05668 17.3178 7.7232C17.314 7.49421 17.3034 7.26459 17.3178 7.03497C17.3347 6.7847 17.2477 6.68084 16.9831 6.69023C16.4946 6.70712 16.0055 6.69523 15.5164 6.69523C14.7214 6.69523 14.7214 6.69523 14.7207 7.47481C14.7207 7.53738 14.7207 7.59994 14.7207 7.66251C14.7107 8.0742 14.5675 8.28817 14.1709 8.38703C13.1781 8.62429 12.2295 9.01886 11.3612 9.55577C11.0566 9.74347 10.7983 9.70593 10.5331 9.46442C10.3404 9.29049 10.1628 9.09903 9.97763 8.91697C9.92696 8.86879 9.88318 8.8056 9.78623 8.80059Z"
    fill="currentColor"
  />
<path
    d="M10.296 30.4014C10.6438 30.4051 10.9615 30.7236 10.9528 31.0608C10.9428 31.2332 10.8684 31.3954 10.7445 31.5155C10.6205 31.6355 10.456 31.7046 10.2835 31.709C9.94258 31.704 9.63609 31.3787 9.64547 31.0321C9.65423 30.7017 9.9676 30.3983 10.296 30.4014Z"
    fill="currentColor"
  />
<path
    d="M21.1241 2.5527C21.1228 2.46724 21.1387 2.3824 21.1706 2.30314C21.2026 2.22388 21.2501 2.1518 21.3102 2.09114C21.3704 2.03047 21.4421 1.98244 21.5211 1.94985C21.6001 1.91727 21.6848 1.90079 21.7702 1.90138C21.8978 1.90139 22.0225 1.93917 22.1287 2.00997C22.2348 2.08077 22.3176 2.18141 22.3667 2.29922C22.4157 2.41702 22.4288 2.54672 22.4043 2.67195C22.3797 2.79719 22.3187 2.91235 22.2288 3.00294C22.139 3.09352 22.0243 3.15547 21.8993 3.18097C21.7743 3.20647 21.6446 3.19438 21.5264 3.14623C21.4083 3.09808 21.307 3.01602 21.2354 2.9104C21.1638 2.80477 21.1251 2.68031 21.1241 2.5527Z"
    fill="currentColor"
  />
<path
    d="M10.8259 16.7793C10.8297 13.935 13.1765 11.6007 16.0288 11.6025C18.881 11.6044 21.2204 13.9563 21.2122 16.83C21.2041 19.6692 18.8504 21.9973 15.9937 21.9917C13.1534 21.9829 10.8222 19.6311 10.8259 16.7793ZM12.1551 16.7749C12.1501 18.9359 13.8439 20.654 15.9887 20.6615C18.1523 20.6684 19.8737 18.9766 19.8824 16.835C19.8918 14.6558 18.1936 12.9352 16.0331 12.9327C13.8727 12.9302 12.1632 14.6264 12.1551 16.7724V16.7749Z"
    fill="currentColor"
  />
</svg>
