<svg
  width="30"
  height="30"
  viewBox="0 0 30 30"
  fill="none"
  xmlns="http://www.w3.org/2000/svg"
>
<path
    d="M30 17.101C29.7653 17.7052 29.3757 18.14 28.7149 18.2556C28.4585 18.3002 28.1904 18.2826 27.9275 18.2843C27.4199 18.2884 26.9123 18.2908 26.4018 18.2843C26.2258 18.2843 26.136 18.3459 26.0838 18.5137C25.889 19.1483 25.6308 19.7618 25.3133 20.3448C25.2218 20.5114 25.2764 20.6082 25.3937 20.7232C25.8467 21.1675 26.2966 21.6156 26.7433 22.0673C27.4921 22.823 27.4927 23.7464 26.7433 24.4992C26.0063 25.2396 25.268 25.978 24.5282 26.7145C24.4314 26.8107 24.3381 26.9093 24.2031 26.9574C24.1161 26.9922 24.0204 26.9988 23.9294 26.976C23.8385 26.9532 23.7571 26.9024 23.6967 26.8307C23.5506 26.6764 23.5031 26.4951 23.5982 26.2927C23.6615 26.1566 23.7707 26.058 23.874 25.9542C24.591 25.236 25.3085 24.5179 26.0263 23.7998C26.3948 23.429 26.3954 23.1386 26.0263 22.7696C25.4765 22.2157 24.9214 21.666 24.371 21.1128C24.0541 20.7936 24.033 20.6164 24.2536 20.2327C24.681 19.4851 25.0147 18.6876 25.247 17.8584C25.3802 17.3808 25.5164 17.2793 26.0169 17.2764C26.7879 17.2723 27.559 17.2764 28.33 17.2764C28.8077 17.2734 29.0406 17.0605 29.0447 16.5852C29.0545 15.5222 29.0545 14.4587 29.0447 13.3948C29.04 12.9337 28.8071 12.7183 28.3494 12.7154C27.5783 12.7107 26.8073 12.7154 26.0363 12.7125C25.5152 12.7125 25.3826 12.6127 25.2447 12.1199C25.0092 11.2831 24.6718 10.4784 24.2401 9.72386C24.0471 9.38593 24.0699 9.18997 24.3451 8.91129C24.9008 8.34982 25.4636 7.79657 26.0204 7.23335C26.403 6.84848 26.4042 6.5651 26.0204 6.18199C25.2838 5.44237 24.5454 4.70411 23.8053 3.96722C23.4491 3.61521 23.1522 3.61521 22.796 3.96722C22.2409 4.51637 21.6917 5.07138 21.1384 5.6217C20.8092 5.94966 20.6326 5.96902 20.2324 5.73904C19.4929 5.31872 18.7046 4.99065 17.8852 4.76219C17.3894 4.62256 17.2937 4.49349 17.292 3.9725C17.2885 3.2098 17.292 2.4471 17.289 1.68909C17.289 1.19333 17.0731 0.965112 16.5808 0.961005C15.5269 0.952791 14.4729 0.952791 13.4186 0.961005C12.9427 0.965698 12.7286 1.19568 12.7256 1.67384C12.7209 2.43654 12.7256 3.19572 12.7256 3.95725C12.7256 4.49701 12.6288 4.62373 12.1177 4.7663C11.2903 4.99984 10.4946 5.3336 9.74827 5.76016C9.3962 5.96022 9.20373 5.93617 8.91269 5.64927C8.35113 5.09309 7.79779 4.53045 7.23389 3.97368C6.8648 3.60758 6.57317 3.60758 6.2035 3.97368C5.46376 4.71017 4.72538 5.44843 3.98838 6.18845C3.62105 6.55806 3.62223 6.84789 3.98838 7.21809C4.53879 7.77252 5.0933 8.32166 5.6437 8.8755C5.95822 9.19232 5.97817 9.37185 5.76106 9.75554C5.34016 10.4938 5.01108 11.2807 4.78113 12.0988C4.63736 12.6104 4.51121 12.7037 3.97136 12.706C3.20854 12.706 2.44572 12.706 1.68701 12.706C1.21112 12.706 0.982865 12.9231 0.97641 13.4007C0.966239 14.4544 0.966239 15.5083 0.97641 16.5624C0.980518 17.0534 1.21112 17.2664 1.70637 17.2664C2.46919 17.2699 3.23201 17.2664 3.99014 17.2664C4.50886 17.2664 4.63971 17.3667 4.77937 17.8625C5.01482 18.6992 5.35241 19.5037 5.78453 20.2579C5.97582 20.5935 5.95177 20.7907 5.67539 21.0699C5.11912 21.632 4.55698 22.1847 3.99953 22.7485C3.61812 23.1322 3.61929 23.4138 4.00305 23.7992C4.71248 24.5115 5.42483 25.2202 6.13426 25.933C6.23345 26.0265 6.32183 26.1308 6.39772 26.244C6.52858 26.4564 6.4787 26.6594 6.31088 26.8307C6.24264 26.9094 6.14855 26.9613 6.0455 26.9769C5.94246 26.9925 5.83723 26.9708 5.74874 26.9158C5.6575 26.8597 5.57421 26.7916 5.50111 26.7133C4.75472 25.9702 4.00931 25.2249 3.26487 24.4775C2.52846 23.737 2.52846 22.8124 3.26487 22.0679C3.71729 21.6097 4.17146 21.1532 4.63267 20.7033C4.75766 20.5818 4.78289 20.4809 4.69546 20.3225C4.38614 19.7604 4.13525 19.168 3.94672 18.5548C3.88393 18.3512 3.78183 18.2779 3.57059 18.282C2.92513 18.2931 2.27966 18.2884 1.6383 18.282C0.668346 18.2767 0.00352071 17.6096 0.00176036 16.6392C-0.000586786 15.5366 -0.000586786 14.434 0.00176036 13.3314C0.00176036 12.3646 0.671283 11.7028 1.64476 11.6981C2.25912 11.6952 2.87701 11.684 3.48903 11.7034C3.75777 11.7116 3.89156 11.6324 3.9696 11.366C4.1444 10.7761 4.38369 10.2073 4.68313 9.66988C4.77409 9.50561 4.76294 9.39707 4.62446 9.26389C4.16794 8.8227 3.72257 8.37095 3.27485 7.92037C2.51203 7.15121 2.5179 6.23949 3.28658 5.46916C4.02437 4.72992 4.76294 3.99167 5.50229 3.25439C6.25455 2.50518 7.17521 2.50577 7.93334 3.25439C8.38399 3.70067 8.8321 4.15047 9.27766 4.60379C9.39502 4.72112 9.49008 4.7751 9.65614 4.68182C10.2299 4.36759 10.8346 4.11339 11.4605 3.92322C11.6536 3.86455 11.7199 3.76247 11.7163 3.56534C11.707 3.00915 11.7369 2.45062 11.7081 1.89678C11.6606 0.975083 12.0226 0.332069 12.8981 0H17.1148C17.9903 0.332069 18.3523 0.975082 18.3054 1.89619C18.2766 2.45062 18.3054 3.01091 18.2966 3.56417C18.293 3.76129 18.3588 3.86103 18.553 3.92146C19.1784 4.11291 19.7827 4.36727 20.3568 4.68064C20.5217 4.77217 20.6185 4.72347 20.7352 4.60496C21.1859 4.14499 21.6418 3.69089 22.1001 3.23796C22.8312 2.51516 23.7636 2.51222 24.4889 3.23209C25.2435 3.98111 25.9956 4.73305 26.7451 5.48793C27.4927 6.2389 27.4903 7.16294 26.7404 7.91919C26.2937 8.36977 25.845 8.81801 25.3943 9.26389C25.291 9.36656 25.2148 9.45398 25.304 9.61591C25.6266 10.2071 25.8885 10.8294 26.0856 11.4734C26.139 11.6418 26.2317 11.7034 26.4048 11.7004C26.9024 11.6934 27.4023 11.6957 27.8981 11.7004C28.1704 11.7004 28.4485 11.684 28.7149 11.7298C29.3745 11.8471 29.7712 12.2789 29.9988 12.8838L30 17.101Z"
    fill="currentColor"
  />
<path
    d="M13.57 23.8058C13.6603 23.2947 13.746 22.8207 13.8264 22.3455C13.8458 22.234 13.7842 22.139 13.7325 22.0439C13.4716 21.564 13.2113 21.0839 12.9515 20.6036C12.6787 20.0967 12.8928 19.7306 13.4685 19.7276C14.493 19.721 15.5175 19.721 16.5421 19.7276C17.1324 19.7312 17.3371 20.1014 17.0514 20.6265C16.795 21.0958 16.5409 21.5704 16.2833 22.041C16.2246 22.1448 16.1659 22.2487 16.1882 22.3713C16.2698 22.8371 16.3555 23.3024 16.4417 23.7793C16.5896 23.7066 16.5896 23.5869 16.6248 23.4936C17.0355 22.4182 17.4375 21.3405 17.8453 20.2668C18.0249 19.7922 18.1287 19.73 18.6316 19.7799C20.7012 19.984 22.5537 21.7547 22.9286 23.8785C22.9763 24.177 22.9975 24.4792 22.992 24.7814C22.992 26.3033 22.992 27.8252 22.992 29.3471C22.992 29.8651 22.8529 29.9995 22.3266 30.0001H7.69274C7.16463 30.0001 7.02321 29.8663 7.02321 29.3512C7.02321 27.7413 7.01089 26.1314 7.03025 24.5221C7.05842 22.1219 9.16087 19.923 11.5544 19.7599C11.873 19.7382 12.0373 19.9048 12.1412 20.18C12.5546 21.2853 12.9709 22.3895 13.3898 23.4925C13.4245 23.591 13.4385 23.699 13.57 23.8058ZM11.1894 29.0273H13.9684C14.4337 29.0273 14.432 29.0273 14.2647 28.5885C13.3298 26.1283 12.3954 23.6683 11.4617 21.2085C11.2938 20.7643 11.2974 20.7632 10.8303 20.9151C10.0121 21.1801 9.29822 21.6959 8.78972 22.3893C8.28122 23.0828 8.00397 23.9187 7.99728 24.7785C7.9873 26.0851 8.00138 27.3916 7.99023 28.6982C7.99023 28.9528 8.06417 29.0361 8.32236 29.0326C9.2794 29.022 10.2347 29.0297 11.1906 29.0297L11.1894 29.0273ZM18.8029 29.0273C19.7774 29.0273 20.7524 29.0273 21.7281 29.0273C21.8841 29.0273 22.0215 29.0273 22.0215 28.8073C21.9892 27.259 22.1059 25.7066 21.9581 24.1613C21.8149 22.674 20.4324 21.1691 18.9831 20.8547C18.7842 20.8119 18.6844 20.8488 18.6093 21.0483C17.6434 23.611 16.6721 26.1715 15.6953 28.7299C15.6044 28.9681 15.6566 29.0338 15.9083 29.0308C16.873 29.0238 17.8383 29.0297 18.8041 29.0297L18.8029 29.0273ZM14.9636 27.6392L15.0493 27.6351C15.2611 27.0807 15.47 26.5251 15.6859 25.9724C15.7591 25.7806 15.7742 25.5714 15.7294 25.371C15.5416 24.4048 15.365 23.435 15.1754 22.471C15.1207 22.2422 15.1578 22.0011 15.2787 21.7993C15.4377 21.5311 15.5756 21.2501 15.7258 20.9779C15.8039 20.8353 15.8127 20.7362 15.605 20.7373C15.2048 20.7373 14.8048 20.7373 14.405 20.7373C14.2289 20.7373 14.2031 20.8154 14.2812 20.9574C14.4167 21.2055 14.5376 21.4625 14.6878 21.7013C14.8638 21.9847 14.8873 22.2669 14.8181 22.5931C14.6368 23.4408 14.4848 24.2945 14.3293 25.1487C14.2929 25.3482 14.2002 25.5559 14.2706 25.7542C14.4901 26.3884 14.7306 27.0138 14.9636 27.6392Z"
    fill="currentColor"
  />
<path
    d="M7.02782 15.0356C6.96914 11.2314 9.76283 7.73532 13.7759 7.09172C18.212 6.37947 22.3822 9.53237 22.935 14.0217C23.1861 16.0634 22.7103 17.9326 21.5267 19.62C21.4322 19.7549 21.3454 19.9051 21.1746 19.9562C20.9634 20.0189 20.7639 19.9984 20.6189 19.8118C20.4593 19.6082 20.4693 19.3959 20.6143 19.1893C20.9342 18.7455 21.2093 18.2711 21.4358 17.7731C23.2618 13.6398 20.589 8.7814 16.1271 8.08734C15.1995 7.93799 14.2514 7.97681 13.3391 8.2015C12.4268 8.42618 11.5691 8.83213 10.817 9.39517C10.065 9.9582 9.43391 10.6668 8.96146 11.4788C8.48901 12.2908 8.18482 13.1895 8.06702 14.1215C7.85108 15.8288 8.22545 17.4164 9.17839 18.859C9.24822 18.9646 9.32391 19.0667 9.39257 19.1735C9.57271 19.4569 9.53926 19.7338 9.30807 19.901C9.08744 20.0606 8.77996 20.0037 8.58867 19.7514C8.12095 19.1361 7.75121 18.4521 7.49256 17.7238C7.17804 16.8437 6.9979 15.942 7.02782 15.0356Z"
    fill="currentColor"
  />
<path
    d="M14.9928 19.3983C12.6052 19.3983 10.6606 17.4411 10.6617 15.0456C10.6629 12.6502 12.6263 10.7 15.038 10.7041C17.418 10.7111 19.3591 12.676 19.355 15.0744C19.3509 17.4587 17.3904 19.4007 14.9928 19.3983ZM15.018 18.3875C16.8887 18.3875 18.3486 16.9137 18.3434 15.0374C18.3407 14.1532 17.9868 13.3061 17.3596 12.6827C16.7323 12.0593 15.8831 11.7106 14.9987 11.7132C14.1143 11.7159 13.2671 12.0697 12.6436 12.6968C12.0201 13.324 11.6713 14.1731 11.6739 15.0574C11.6751 16.9319 13.1392 18.3904 15.018 18.3875Z"
    fill="currentColor"
  />
</svg>
